<svg width="89" height="89" viewBox="0 0 89 89" fill="none" xmlns="http://www.w3.org/2000/svg">
<path d="M33.6068 12.9792L33.375 27.8126H9.27081C9.27081 27.8126 9.27081 23.0529 9.27081 19.4688C9.27081 15.8847 12.1763 12.9792 15.7604 12.9792C19.3445 12.9792 33.6068 12.9792 33.6068 12.9792Z" fill="#37474F"/>
<path d="M55.6417 10.4334L59.0719 4.65392C59.5948 3.77319 59.3037 2.63473 58.4248 2.11185C57.5441 1.58712 56.4075 1.88008 55.8827 2.75896L52.2764 8.83321C49.8567 7.92837 47.2405 7.41663 44.5 7.41663C41.7595 7.41663 39.1433 7.92837 36.7218 8.83506L33.1154 2.76081C32.5925 1.88194 31.4559 1.58898 30.5734 2.11371C29.6926 2.63658 29.4034 3.77504 29.9263 4.65577L33.3565 10.4352C27.2359 13.9952 22.9583 20.3772 22.3427 27.8143H66.6573C66.0417 20.3754 61.7642 13.9934 55.6417 10.4334Z" fill="#00E676"/>
<path d="M35.2292 20.3958C36.2532 20.3958 37.0833 19.5657 37.0833 18.5417C37.0833 17.5176 36.2532 16.6875 35.2292 16.6875C34.2051 16.6875 33.375 17.5176 33.375 18.5417C33.375 19.5657 34.2051 20.3958 35.2292 20.3958Z" fill="white"/>
<path d="M53.7709 20.3958C54.7949 20.3958 55.625 19.5657 55.625 18.5417C55.625 17.5176 54.7949 16.6875 53.7709 16.6875C52.7468 16.6875 51.9167 17.5176 51.9167 18.5417C51.9167 19.5657 52.7468 20.3958 53.7709 20.3958Z" fill="white"/>
<path d="M73.2396 25.9583C72.3236 25.9583 17.355 25.9583 15.7604 25.9583C12.1763 25.9583 9.27081 23.0529 9.27081 19.4688C9.27081 19.4706 9.27081 65.9471 9.27081 69.5313C9.27081 73.1154 12.1763 76.0208 15.7604 76.0208C17.355 76.0208 79.7291 76.0208 79.7291 76.0208C79.7291 76.0208 79.7291 36.032 79.7291 32.4479C79.7291 28.8638 76.8237 25.9583 73.2396 25.9583Z" fill="#448AFF"/>
<path d="M73.2396 38.9376C72.6054 38.9376 71.6246 38.9376 70.4583 38.9376V86.9141C71.6246 86.9141 72.6054 86.9141 73.2396 86.9141C76.8237 86.9141 79.7291 84.0087 79.7291 80.4246C79.7291 76.8405 79.7291 32.448 79.7291 32.448C79.7291 36.0321 76.8237 38.9376 73.2396 38.9376Z" fill="#37474F"/>
<path d="M62.6115 81.6964L48.8091 52.3654C50.6837 51.0174 51.9167 48.8332 51.9167 46.3542C51.9167 42.9091 49.5434 40.0296 46.3542 39.2008V35.2292C46.3542 34.2057 45.5235 33.375 44.5 33.375C43.4765 33.375 42.6459 34.2057 42.6459 35.2292V39.2008C39.4567 40.0296 37.0834 42.9091 37.0834 46.3542C37.0834 48.8332 38.3164 51.0174 40.1909 52.3654L26.3959 81.6816C25.6098 83.3522 26.0233 85.4363 27.5455 86.4802C29.4868 87.8115 32.0641 87.0531 33.0227 85.0154L41.6316 66.7222C42.7738 64.2951 46.2281 64.2951 47.3703 66.7222L55.9792 85.0154C56.6096 86.3597 57.9427 87.1458 59.3352 87.1458C60.0973 87.1458 60.8779 86.9085 61.5658 86.4005C63.0083 85.3362 63.3754 83.3188 62.6115 81.6964ZM44.5 42.6458C46.5452 42.6458 48.2084 44.309 48.2084 46.3542C48.2084 48.3993 46.5452 50.0625 44.5 50.0625C42.4549 50.0625 40.7917 48.3993 40.7917 46.3542C40.7917 44.309 42.4549 42.6458 44.5 42.6458Z" fill="#37474F"/>
</svg>
