<svg width="112" height="112" viewBox="0 0 112 112" fill="none" xmlns="http://www.w3.org/2000/svg">
<rect x="11" y="16" width="90.8438" height="58" rx="6" fill="white"/>
<rect x="15" y="20.549" width="82.84" height="48.902" rx="3" fill="#3F7AAA"/>
<path d="M15 20H25V20C25 25.5228 20.5228 30 15 30V30V20Z" fill="white"/>
<path d="M15 70H25V70C25 64.4772 20.5228 60 15 60V60V70Z" fill="white"/>
<path d="M98 20H88V20C88 25.5228 92.4772 30 98 30V30V20Z" fill="white"/>
<path d="M98 70H88V70C88 64.4772 92.4772 60 98 60V60V70Z" fill="white"/>
<rect x="34" y="26" width="44" height="4" rx="2" fill="#E4D07C"/>
<rect x="29" y="37" width="54" height="4" rx="2" fill="#E4D07C"/>
<rect x="29" y="48" width="54" height="4" rx="2" fill="#E4D07C"/>
<rect x="33" y="59" width="46" height="4" rx="2" fill="#E4D07C"/>
<circle cx="18" cy="23" r="3" fill="#C3A8A8"/>
<circle cx="18" cy="23" r="3" fill="#C3A8A8"/>
<circle cx="18" cy="23" r="3" fill="#C3A8A8"/>
<circle cx="95" cy="23" r="3" fill="#C3A8A8"/>
<circle cx="95" cy="23" r="3" fill="#C3A8A8"/>
<circle cx="95" cy="23" r="3" fill="#C3A8A8"/>
<circle cx="95" cy="66" r="3" fill="#C3A8A8"/>
<circle cx="95" cy="66" r="3" fill="#C3A8A8"/>
<circle cx="95" cy="66" r="3" fill="#C3A8A8"/>
<circle cx="18" cy="66" r="3" fill="#C3A8A8"/>
<circle cx="18" cy="66" r="3" fill="#C3A8A8"/>
<circle cx="18" cy="66" r="3" fill="#C3A8A8"/>
<path d="M71.0329 72L77.6776 74.2019L73.0438 88.1852C72.9208 88.5564 72.393 88.5487 72.2809 88.174L70.8951 83.5426L67.0178 86.4299C66.7041 86.6635 66.2761 86.3545 66.3992 85.9833L71.0329 72Z" fill="#51A6FC"/>
<path d="M84.6447 72L78 74.2019L82.6337 88.1852C82.7568 88.5564 83.2845 88.5487 83.3967 88.174L84.7825 83.5426L88.6598 86.4299C88.9735 86.6635 89.4014 86.3545 89.2784 85.9833L84.6447 72Z" fill="#51A6FC"/>
<circle cx="77.5" cy="66.5" r="10.5" fill="#EDD84F"/>
<circle cx="77.5" cy="66.5" r="8.5" fill="white"/>
<path d="M77.0487 60.9457C77.2299 60.5661 77.7701 60.5661 77.9513 60.9457L79.2552 63.6784C79.3281 63.8311 79.4733 63.9366 79.6411 63.9587L82.643 64.3545C83.06 64.4094 83.2269 64.9232 82.9219 65.2128L80.7259 67.2974C80.6032 67.4139 80.5477 67.5846 80.5785 67.7511L81.1298 70.7283C81.2064 71.1418 80.7693 71.4594 80.3997 71.2588L77.7385 69.8144C77.5898 69.7337 77.4102 69.7337 77.2615 69.8144L74.6003 71.2588C74.2307 71.4594 73.7936 71.1418 73.8702 70.7283L74.4215 67.7511C74.4523 67.5846 74.3968 67.4139 74.2741 67.2974L72.0781 65.2128C71.7731 64.9232 71.94 64.4094 72.357 64.3545L75.3589 63.9587C75.5267 63.9366 75.6719 63.8311 75.7448 63.6784L77.0487 60.9457Z" fill="#D2B4B4"/>
</svg>
