<svg width="49" height="46" viewBox="0 0 49 46" fill="none" xmlns="http://www.w3.org/2000/svg">
<g clip-path="url(#clip0_1025_67)">
<path fill-rule="evenodd" clip-rule="evenodd" d="M24.427 0C10.9195 0 0 10.5417 0 23.5831C0 34.0079 6.9965 42.8322 16.7025 45.9554C17.916 46.1902 18.3605 45.448 18.3605 44.8236C18.3605 44.2769 18.3205 42.4029 18.3205 40.4503C11.5255 41.8562 10.1105 37.639 10.1105 37.639C9.0185 34.9059 7.4005 34.2034 7.4005 34.2034C5.1765 32.7587 7.5625 32.7587 7.5625 32.7587C10.0295 32.9149 11.324 35.1795 11.324 35.1795C13.5075 38.7713 17.026 37.7564 18.4415 37.1316C18.6435 35.6088 19.291 34.5546 19.9785 33.9691C14.559 33.4224 8.857 31.3921 8.857 22.3335C8.857 19.7565 9.827 17.6482 11.364 16.0085C11.1215 15.4229 10.272 13.0017 11.607 9.7611C11.607 9.7611 13.6695 9.13627 18.32 12.1819C20.311 11.6656 22.3644 11.403 24.427 11.4008C26.4895 11.4008 28.592 11.6744 30.5335 12.1819C35.1845 9.13627 37.247 9.7611 37.247 9.7611C38.582 13.0017 37.732 15.4229 37.4895 16.0085C39.067 17.6482 39.997 19.7565 39.997 22.3335C39.997 31.3921 34.295 33.3831 28.835 33.9691C29.725 34.7108 30.493 36.1162 30.493 38.342C30.493 41.5045 30.453 44.0426 30.453 44.8232C30.453 45.448 30.898 46.1902 32.111 45.9559C41.817 42.8317 48.8135 34.0079 48.8135 23.5831C48.8535 10.5417 37.894 0 24.427 0Z" fill="#DFD0B8"/>
</g>
<defs>
<clipPath id="clip0_1025_67">
<rect width="49" height="46" fill="white"/>
</clipPath>
</defs>
</svg>
