<svg width="46" height="46" viewBox="0 0 46 46" fill="none" xmlns="http://www.w3.org/2000/svg">
<g clip-path="url(#clip0_1025_55)">
<path d="M23.007 0C13.4021 0 10.593 0.00990853 10.047 0.0552047C8.07591 0.219049 6.84938 0.529399 5.51314 1.19469C4.48336 1.70604 3.67122 2.29878 2.86969 3.12968C1.40995 4.64498 0.525258 6.5092 0.205 8.72517C0.0492948 9.80095 0.00399866 10.0204 -0.00520212 15.5153C-0.00874088 17.347 -0.00520212 19.7576 -0.00520212 22.991C-0.00520212 32.5881 0.00541416 35.3943 0.0514181 35.9393C0.210662 37.8573 0.511457 39.064 1.14843 40.384C2.36577 42.9107 4.69073 44.8074 7.42973 45.5152C8.37812 45.7594 9.4256 45.8938 10.7703 45.9575C11.3401 45.9823 17.1472 46 22.9578 46C28.7685 46 34.5791 45.9929 35.1347 45.9646C36.6917 45.8914 37.5959 45.77 38.5956 45.5117C39.9537 45.1634 41.2194 44.5228 42.3043 43.6347C43.3892 42.7466 44.2672 41.6324 44.8769 40.3698C45.5015 39.0817 45.8182 37.829 45.9615 36.0111C45.9927 35.6148 46.0058 29.2956 46.0058 22.985C46.0058 16.6732 45.9916 10.3657 45.9605 9.9694C45.8154 8.12216 45.4987 6.88006 44.8539 5.56718C44.3248 4.49246 43.7374 3.68987 42.8846 2.86923C41.3629 1.4155 39.5015 0.530814 37.2831 0.21091C36.2084 0.0555586 35.9943 0.00955466 30.495 0H23.007Z" fill="#586169"/>
<path d="M22.9968 6.01587C18.3837 6.01587 17.8047 6.03604 15.9929 6.11849C14.1846 6.2013 12.9503 6.48759 11.8702 6.90764C10.753 7.34149 9.80537 7.92185 8.86123 8.86634C7.91638 9.81048 7.33603 10.7582 6.90076 11.875C6.47965 12.9554 6.19301 14.1901 6.11162 15.9977C6.03094 17.8095 6.0097 18.3888 6.0097 23.0019C6.0097 27.6151 6.03023 28.1922 6.11233 30.0041C6.19549 31.8124 6.48177 33.0467 6.90147 34.1267C7.33568 35.2439 7.91603 36.1916 8.86052 37.1357C9.80431 38.0806 10.752 38.6624 11.8685 39.0962C12.9492 39.5163 14.1839 39.8025 15.9918 39.8854C17.8037 39.9678 18.3822 39.988 22.995 39.988C27.6085 39.988 28.1857 39.9678 29.9975 39.8854C31.8058 39.8025 33.0415 39.5163 34.1223 39.0962C35.2391 38.6624 36.1854 38.0806 37.1291 37.1357C38.074 36.1916 38.6543 35.2439 39.0896 34.1271C39.5072 33.0467 39.7938 31.812 39.8788 30.0044C39.9601 28.1926 39.9814 27.6151 39.9814 23.0019C39.9814 18.3888 39.9601 17.8099 39.8788 15.998C39.7938 14.1897 39.5072 12.9554 39.0896 11.8753C38.6543 10.7582 38.074 9.81048 37.1291 8.86634C36.1843 7.92149 35.2395 7.34114 34.1212 6.90764C33.0383 6.48759 31.8033 6.2013 29.995 6.11849C28.1832 6.03604 27.6064 6.01587 22.9918 6.01587H22.9968ZM21.473 9.0769C21.9252 9.07619 22.4299 9.0769 22.9968 9.0769C27.532 9.0769 28.0696 9.09318 29.8605 9.17457C31.5167 9.2503 32.4155 9.52703 33.0143 9.75953C33.807 10.0674 34.3721 10.4354 34.9663 11.0299C35.5608 11.6245 35.9288 12.1907 36.2374 12.9833C36.4699 13.5814 36.747 14.4802 36.8223 16.1364C36.9037 17.927 36.9214 18.4649 36.9214 22.998C36.9214 27.5312 36.9037 28.0691 36.8223 29.8597C36.7466 31.5158 36.4699 32.4147 36.2374 33.0127C35.9295 33.8054 35.5608 34.3698 34.9663 34.964C34.3717 35.5585 33.8073 35.9265 33.0143 36.2344C32.4162 36.468 31.5167 36.744 29.8605 36.8197C28.0699 36.9011 27.532 36.9188 22.9968 36.9188C18.4612 36.9188 17.9236 36.9011 16.133 36.8197C14.4769 36.7433 13.578 36.4666 12.9789 36.2341C12.1862 35.9262 11.62 35.5582 11.0255 34.9636C10.431 34.3691 10.063 33.8043 9.75441 33.0113C9.52192 32.4133 9.24483 31.5144 9.16946 29.8583C9.08807 28.0677 9.07179 27.5298 9.07179 22.9938C9.07179 18.4578 9.08807 17.9227 9.16946 16.1321C9.24519 14.476 9.52192 13.5771 9.75441 12.9784C10.0623 12.1857 10.431 11.6195 11.0255 11.025C11.62 10.4305 12.1862 10.0624 12.9789 9.75386C13.5777 9.5203 14.4769 9.24428 16.133 9.1682C17.7 9.09742 18.3072 9.07619 21.473 9.07265V9.0769ZM32.0638 11.8973C31.6606 11.8973 31.2665 12.0169 30.9313 12.2409C30.5961 12.4649 30.3348 12.7832 30.1805 13.1557C30.0263 13.5282 29.986 13.9381 30.0647 14.3335C30.1434 14.729 30.3376 15.0921 30.6227 15.3772C30.9078 15.6622 31.2711 15.8563 31.6665 15.9349C32.062 16.0134 32.4719 15.973 32.8443 15.8186C33.2167 15.6642 33.535 15.4028 33.7589 15.0675C33.9828 14.7322 34.1022 14.3381 34.1021 13.9349C34.1021 12.8096 33.1891 11.8966 32.0638 11.8966V11.8973ZM22.9968 14.2789C18.1795 14.2789 14.2738 18.1846 14.2738 23.0019C14.2738 27.8192 18.1795 31.7232 22.9968 31.7232C27.8141 31.7232 31.7187 27.8192 31.7187 23.0019C31.7187 18.1846 27.8137 14.2789 22.9964 14.2789H22.9968ZM22.9968 17.3399C26.1236 17.3399 28.6588 19.8747 28.6588 23.0019C28.6588 26.1288 26.1236 28.6639 22.9968 28.6639C19.8696 28.6639 17.3348 26.1288 17.3348 23.0019C17.3348 19.8747 19.8696 17.3399 22.9968 17.3399Z" fill="#DFD0B8"/>
</g>
<defs>
<clipPath id="clip0_1025_55">
<rect width="46" height="46" fill="white"/>
</clipPath>
</defs>
</svg>
