<svg width="60" height="60" viewBox="0 0 60 60" fill="none" xmlns="http://www.w3.org/2000/svg">
<path d="M52.5 46.25C52.5 49.7025 49.7025 52.5 46.25 52.5H13.75C10.2988 52.5 7.5 49.7025 7.5 46.25V13.75C7.5 10.2975 10.2988 7.5 13.75 7.5H46.25C49.7025 7.5 52.5 10.2975 52.5 13.75V46.25Z" fill="#586169"/>
<path opacity="0.05" d="M37.5 46.25V33.6262C37.5 31.515 36.4762 30.2537 34.76 30.2537C33.7412 30.2537 32.9925 30.8275 32.5362 31.9587C32.515 32.0387 32.485 32.365 32.4975 33.3512L32.5 46.25H23.75V22.5H32.5V23.8262C33.7775 22.945 35.3437 22.5 37.1725 22.5C42.8562 22.5 46.2487 26.3662 46.2487 32.8425L46.25 46.25H37.5ZM13.75 46.25V22.5H18.0712C15.5675 22.5 13.75 20.66 13.75 18.1237C13.75 15.59 15.5975 13.75 18.1425 13.75C20.6575 13.75 22.4487 15.5387 22.5 18.0987C22.5 20.6537 20.6512 22.5 18.1062 22.5H22.5V46.25H13.75Z" fill="black"/>
<path opacity="0.07" d="M38.125 45.625V33.6263C38.125 31.16 36.8363 29.6288 34.76 29.6288C33.1413 29.6288 32.3413 30.7688 31.9563 31.725C31.8538 31.9738 31.8675 32.9613 31.8725 33.3825L31.875 45.625H24.375V23.125H31.875V25.1725C32.8688 24.1438 34.4688 23.125 37.1725 23.125C42.4638 23.125 45.6238 26.7575 45.6238 32.8425L45.625 45.625H38.125ZM14.375 45.625V23.125H21.875V45.625H14.375ZM18.0713 21.875C15.93 21.875 14.375 20.2975 14.375 18.1238C14.375 15.9512 15.96 14.375 18.1425 14.375C20.2975 14.375 21.8313 15.9113 21.875 18.1113C21.875 20.2975 20.29 21.875 18.1063 21.875H18.0713Z" fill="black"/>
<path d="M15 23.75H21.25V45H15V23.75ZM18.1062 21.25H18.0712C16.2062 21.25 15 19.86 15 18.1237C15 16.35 16.2437 15 18.1425 15C20.0437 15 21.215 16.35 21.25 18.1237C21.25 19.8587 20.0437 21.25 18.1062 21.25ZM45 45H38.75V33.6262C38.75 30.8787 37.2188 29.0037 34.76 29.0037C32.8838 29.0037 31.8687 30.2688 31.3762 31.4913C31.1962 31.9288 31.25 33.1388 31.25 33.75V45H25V23.75H31.25V27.02C32.1513 25.625 33.5625 23.75 37.1725 23.75C41.645 23.75 44.9988 26.5625 44.9988 32.8425L45 45Z" fill="#DFD0B8"/>
</svg>
