<svg width="52" height="52" viewBox="0 0 52 52" fill="none" xmlns="http://www.w3.org/2000/svg">
<path d="M38 35C39.6568 35 41 36.3432 41 38C41 39.6569 39.6569 41 38 41H32C30.3431 41 29 39.6569 29 38C29 36.3432 30.3432 35 32 35H38ZM38 23C39.6569 23 41 24.3431 41 26C41 27.6568 39.6568 29 38 29H23C21.3432 29 20 27.6568 20 26C20 24.3431 21.3431 23 23 23H38ZM38 11C39.6569 11 41 12.3431 41 14C41 15.6569 39.6569 17 38 17H14C12.3431 17 11 15.6569 11 14C11 12.3431 12.3431 11 14 11H38Z" fill="white"/>
</svg>
