<svg width="86" height="86" viewBox="0 0 86 86" fill="none" xmlns="http://www.w3.org/2000/svg">
<path d="M55.0938 8.0625H30.2344C27.2658 8.0625 24.8594 10.469 24.8594 13.4375V71.8906C24.8594 74.8592 27.2658 77.2656 30.2344 77.2656H55.0938C58.0623 77.2656 60.4688 74.8592 60.4688 71.8906V13.4375C60.4688 10.469 58.0623 8.0625 55.0938 8.0625Z" fill="#F84E4E"/>
<path d="M55.0938 8.73438H30.2344C27.6369 8.73438 25.5312 10.84 25.5312 13.4375V71.8906C25.5312 74.4881 27.6369 76.5938 30.2344 76.5938H55.0938C57.6912 76.5938 59.7969 74.4881 59.7969 71.8906V13.4375C59.7969 10.84 57.6912 8.73438 55.0938 8.73438Z" fill="black"/>
<path d="M26.2031 13.4375C26.2031 11.2111 28.008 9.40625 30.2344 9.40625H35.6094H55.0938C57.3201 9.40625 59.125 11.2111 59.125 13.4375V71.8906C59.125 74.1172 57.3201 75.9219 55.0938 75.9219H30.2344C28.008 75.9219 26.2031 74.1172 26.2031 71.8906V13.4375Z" fill="url(#paint0_linear_1033_381)"/>
<path d="M32.5859 9.40625H52.7422V10.75C52.7422 11.8632 51.8398 12.7656 50.7266 12.7656H34.6016C33.4883 12.7656 32.5859 11.8632 32.5859 10.75V9.40625Z" fill="black"/>
<defs>
<linearGradient id="paint0_linear_1033_381" x1="36.6172" y1="14.1094" x2="55.0938" y2="70.8828" gradientUnits="userSpaceOnUse">
<stop stop-color="#A9E9FD"/>
<stop offset="0.967696" stop-color="#27A9B1"/>
</linearGradient>
</defs>
</svg>
