<svg width="233" height="164" viewBox="0 0 233 164" fill="none" xmlns="http://www.w3.org/2000/svg">
<rect x="135" y="97" width="19" height="19" fill="white"/>
<g filter="url(#filter0_d_2104_109)">
<rect x="133" y="116" width="23" height="1" rx="0.5" fill="#F7F7F7"/>
</g>
<rect x="99" y="35" width="92" height="64" rx="2" fill="black"/>
<rect x="101" y="37" width="88" height="60" rx="1" fill="url(#paint0_linear_2104_109)"/>
<circle cx="184.5" cy="98" r="0.5" fill="#559858"/>
<circle cx="180.5" cy="98" r="0.5" fill="#E92B2B"/>
<circle cx="182.5" cy="98" r="0.5" fill="#C9DE8E"/>
<rect x="27" y="23" width="53" height="103" rx="8" fill="#F84E4E"/>
<rect x="28" y="24" width="51" height="101" rx="7" fill="black"/>
<path d="M29 31C29 27.6863 31.6863 25 35 25H43H72C75.3137 25 78 27.6863 78 31V118C78 121.314 75.3137 124 72 124H35C31.6863 124 29 121.314 29 118V31Z" fill="white"/>
<path d="M29 31C29 27.6863 31.6863 25 35 25H43H72C75.3137 25 78 27.6863 78 31V41H29V31Z" fill="#6AB1D5"/>
<path d="M38.5 25H68.5V27C68.5 28.6569 67.1569 30 65.5 30H41.5C39.8431 30 38.5 28.6569 38.5 27V25Z" fill="black"/>
<path d="M34.6497 37.6066C34.7767 37.7336 34.9825 37.7335 35.1096 37.6066C35.2367 37.4795 35.2373 37.2732 35.1103 37.146L34.2029 36.2387H36.5438C36.6929 36.2387 36.8137 36.1177 36.8138 35.9687C36.8138 35.8196 36.6929 35.6987 36.5438 35.6987H34.1794L35.1103 34.7678C35.2373 34.6407 35.2367 34.4343 35.1096 34.3073C34.9825 34.1805 34.7767 34.1804 34.6497 34.3073L33.2299 35.727C33.1032 35.854 33.1032 36.0598 33.2299 36.1869L34.6497 37.6066Z" fill="white"/>
<rect x="33" y="44" width="41" height="11" fill="#AAD4E3"/>
<rect x="33" y="58" width="20" height="14" fill="#AAD4E3"/>
<rect x="54" y="58" width="20" height="14" fill="#AAD4E3"/>
<rect x="57" y="83" width="17" height="14" rx="2" fill="#AAD4E3"/>
<rect x="33" y="74" width="12" height="5" rx="2" fill="#AAD4E3"/>
<rect x="33" y="83" width="14" height="4" fill="#AAD4E3"/>
<rect x="33" y="89" width="21" height="3" fill="#AAD4E3"/>
<rect x="33" y="94" width="21" height="3" fill="#AAD4E3"/>
<rect x="33" y="100" width="41" height="3" fill="#AAD4E3"/>
<rect x="33" y="106" width="41" height="3" fill="#AAD4E3"/>
<rect x="33" y="112" width="41" height="3" fill="#AAD4E3"/>
<rect x="47" y="74" width="12" height="5" rx="2" fill="#AAD4E3"/>
<rect x="61" y="74" width="12" height="5" rx="2" fill="#AAD4E3"/>
<rect x="43" y="34.5" width="22" height="3" fill="#A4E7FF"/>
<g filter="url(#filter1_d_2104_109)">
<rect x="116" y="51" width="57" height="32" rx="1" fill="white"/>
<path d="M116 52C116 51.4477 116.448 51 117 51H172C172.552 51 173 51.4477 173 52V55H116V52Z" fill="#3F7AAA"/>
<circle cx="118" cy="53" r="1" fill="#EF3333"/>
<circle cx="121" cy="53" r="1" fill="#E4FF4A"/>
<circle cx="124" cy="53" r="1" fill="#7DE63C"/>
<rect x="118" y="68" width="53" height="3" fill="#26899F"/>
<rect x="118" y="73" width="45" height="3" fill="#26899F"/>
<rect x="118" y="78" width="34" height="3" fill="#26899F"/>
<rect x="118" y="57" width="9" height="9" rx="1" fill="#82DFE5"/>
<rect x="130" y="57" width="11" height="3" fill="#82DFE5"/>
<rect x="130" y="62" width="25" height="3" fill="#82DFE5"/>
</g>
<path d="M179.43 78.2847L195.912 61.8032L197.214 62.7148C198.554 63.6525 199.719 64.8177 200.657 66.1576L201.569 67.4601L185.087 83.9416L184.175 82.6391C183.238 81.2992 182.073 80.134 180.733 79.1963L179.43 78.2847Z" fill="#FF9A0C"/>
<path d="M197.06 60.536L199.181 58.4147C199.962 57.6336 201.228 57.6336 202.009 58.4147L204.838 61.2431C205.619 62.0242 205.619 63.2905 204.838 64.0715L202.716 66.1928L202.396 65.6585C201.214 63.688 199.564 62.0389 197.594 60.8566L197.06 60.536Z" fill="#CA0505"/>
<path d="M175.042 89.671L183.673 85.3558L183.352 84.8215C182.17 82.851 180.521 81.2018 178.55 80.0195L178.016 79.6989L173.701 88.3293C173.271 89.1889 174.183 90.1008 175.042 89.671Z" fill="#EBE525"/>
<g filter="url(#filter2_d_2104_109)">
<path d="M66.8995 97.2843L83.381 80.8028L84.6835 81.7143C86.0234 82.652 87.1886 83.8173 88.1263 85.1571L89.0378 86.4596L72.5564 102.941L71.6448 101.639C70.7071 100.299 69.5419 99.1335 68.202 98.1958L66.8995 97.2843Z" fill="#FF9A0C"/>
<path d="M84.529 79.5355L86.6503 77.4142C87.4313 76.6332 88.6977 76.6332 89.4787 77.4142L92.3071 80.2426C93.0882 81.0237 93.0882 82.29 92.3071 83.0711L90.1858 85.1924L89.8652 84.6581C88.6829 82.6876 87.0338 81.0384 85.0633 79.8561L84.529 79.5355Z" fill="#CA0505"/>
<path d="M62.5117 108.671L71.1421 104.355L70.8216 103.821C69.6393 101.851 67.9901 100.201 66.0196 99.019L65.4853 98.6985L61.1701 107.329C60.7403 108.188 61.6522 109.1 62.5117 108.671Z" fill="#EBE525"/>
</g>
<rect x="68" y="107" width="42" height="33" rx="6" fill="#69AFCD"/>
<g filter="url(#filter3_d_2104_109)">
<path d="M83.76 128.92L74.24 125.3V122.7L83.76 119.08V121.58L75.18 124.7V123.3L83.76 126.42V128.92ZM84.3127 133L90.9127 114.16H93.6927L87.0927 133H84.3127ZM94.0447 128.92V126.42L102.625 123.3V124.7L94.0447 121.58V119.08L103.565 122.7V125.3L94.0447 128.92Z" fill="white"/>
</g>
<defs>
<filter id="filter0_d_2104_109" x="127" y="110" width="35" height="13" filterUnits="userSpaceOnUse" color-interpolation-filters="sRGB">
<feFlood flood-opacity="0" result="BackgroundImageFix"/>
<feColorMatrix in="SourceAlpha" type="matrix" values="0 0 0 0 0 0 0 0 0 0 0 0 0 0 0 0 0 0 127 0" result="hardAlpha"/>
<feMorphology radius="1" operator="dilate" in="SourceAlpha" result="effect1_dropShadow_2104_109"/>
<feOffset/>
<feGaussianBlur stdDeviation="2.5"/>
<feComposite in2="hardAlpha" operator="out"/>
<feColorMatrix type="matrix" values="0 0 0 0 0 0 0 0 0 0 0 0 0 0 0 0 0 0 0.25 0"/>
<feBlend mode="normal" in2="BackgroundImageFix" result="effect1_dropShadow_2104_109"/>
<feBlend mode="normal" in="SourceGraphic" in2="effect1_dropShadow_2104_109" result="shape"/>
</filter>
<filter id="filter1_d_2104_109" x="112" y="49" width="65" height="40" filterUnits="userSpaceOnUse" color-interpolation-filters="sRGB">
<feFlood flood-opacity="0" result="BackgroundImageFix"/>
<feColorMatrix in="SourceAlpha" type="matrix" values="0 0 0 0 0 0 0 0 0 0 0 0 0 0 0 0 0 0 127 0" result="hardAlpha"/>
<feOffset dy="2"/>
<feGaussianBlur stdDeviation="2"/>
<feComposite in2="hardAlpha" operator="out"/>
<feColorMatrix type="matrix" values="0 0 0 0 0 0 0 0 0 0 0 0 0 0 0 0 0 0 0.25 0"/>
<feBlend mode="normal" in2="BackgroundImageFix" result="effect1_dropShadow_2104_109"/>
<feBlend mode="normal" in="SourceGraphic" in2="effect1_dropShadow_2104_109" result="shape"/>
</filter>
<filter id="filter2_d_2104_109" x="56.9602" y="75.7284" width="40.0327" height="40.1519" filterUnits="userSpaceOnUse" color-interpolation-filters="sRGB">
<feFlood flood-opacity="0" result="BackgroundImageFix"/>
<feColorMatrix in="SourceAlpha" type="matrix" values="0 0 0 0 0 0 0 0 0 0 0 0 0 0 0 0 0 0 127 0" result="hardAlpha"/>
<feOffset dy="3"/>
<feGaussianBlur stdDeviation="2.05"/>
<feComposite in2="hardAlpha" operator="out"/>
<feColorMatrix type="matrix" values="0 0 0 0 0 0 0 0 0 0 0 0 0 0 0 0 0 0 0.25 0"/>
<feBlend mode="normal" in2="BackgroundImageFix" result="effect1_dropShadow_2104_109"/>
<feBlend mode="normal" in="SourceGraphic" in2="effect1_dropShadow_2104_109" result="shape"/>
</filter>
<filter id="filter3_d_2104_109" x="70.24" y="113.16" width="37.3247" height="26.84" filterUnits="userSpaceOnUse" color-interpolation-filters="sRGB">
<feFlood flood-opacity="0" result="BackgroundImageFix"/>
<feColorMatrix in="SourceAlpha" type="matrix" values="0 0 0 0 0 0 0 0 0 0 0 0 0 0 0 0 0 0 127 0" result="hardAlpha"/>
<feOffset dy="3"/>
<feGaussianBlur stdDeviation="2"/>
<feComposite in2="hardAlpha" operator="out"/>
<feColorMatrix type="matrix" values="0 0 0 0 0 0 0 0 0 0 0 0 0 0 0 0 0 0 0.25 0"/>
<feBlend mode="normal" in2="BackgroundImageFix" result="effect1_dropShadow_2104_109"/>
<feBlend mode="normal" in="SourceGraphic" in2="effect1_dropShadow_2104_109" result="shape"/>
</filter>
<linearGradient id="paint0_linear_2104_109" x1="146.5" y1="62" x2="179" y2="94" gradientUnits="userSpaceOnUse">
<stop stop-color="#A8E3E7"/>
<stop offset="0.953125" stop-color="#28C6D0"/>
</linearGradient>
</defs>
</svg>
