<svg width="128" height="128" viewBox="0 0 128 128" fill="none" xmlns="http://www.w3.org/2000/svg">
<rect x="54" y="87" width="19" height="19" fill="white"/>
<g filter="url(#filter0_d_2154_2)">
<rect x="52" y="106" width="23" height="1" rx="0.5" fill="#F7F7F7"/>
</g>
<rect x="18" y="25" width="92" height="64" rx="2" fill="black"/>
<rect x="20" y="27" width="88" height="60" rx="1" fill="url(#paint0_linear_2154_2)"/>
<circle cx="103.5" cy="88" r="0.5" fill="#559858"/>
<circle cx="99.5" cy="88" r="0.5" fill="#E92B2B"/>
<circle cx="101.5" cy="88" r="0.5" fill="#C9DE8E"/>
<rect x="36" y="41" width="57" height="32" rx="1" fill="white"/>
<path d="M36 42C36 41.4477 36.4477 41 37 41H92C92.5523 41 93 41.4477 93 42V45H36V42Z" fill="#3F7AAA"/>
<circle cx="38" cy="43" r="1" fill="#EF3333"/>
<circle cx="41" cy="43" r="1" fill="#E4FF4A"/>
<circle cx="44" cy="43" r="1" fill="#7DE63C"/>
<rect x="50" y="47" width="41" height="5" rx="1" fill="#BDE4F5"/>
<path d="M52.9975 48.935C53.1042 48.935 53.1992 48.9567 53.2825 49C53.3675 49.0417 53.4342 49.1067 53.4825 49.195C53.5308 49.2817 53.555 49.3933 53.555 49.53V50.3H53.165V49.59C53.165 49.4817 53.1408 49.4017 53.0925 49.35C53.0458 49.2983 52.9792 49.2725 52.8925 49.2725C52.8308 49.2725 52.775 49.2858 52.725 49.3125C52.6767 49.3375 52.6383 49.3767 52.61 49.43C52.5833 49.4833 52.57 49.5517 52.57 49.635V50.3H52.18V48.445H52.57V49.3275L52.4825 49.215C52.5308 49.125 52.6 49.0558 52.69 49.0075C52.78 48.9592 52.8825 48.935 52.9975 48.935ZM54.4585 50.32C54.3002 50.32 54.1768 50.28 54.0885 50.2C54.0002 50.1183 53.956 49.9975 53.956 49.8375V48.6575H54.346V49.8325C54.346 49.8892 54.361 49.9333 54.391 49.965C54.421 49.995 54.4618 50.01 54.5135 50.01C54.5752 50.01 54.6277 49.9933 54.671 49.96L54.776 50.235C54.736 50.2633 54.6877 50.285 54.631 50.3C54.576 50.3133 54.5185 50.32 54.4585 50.32ZM53.7485 49.285V48.985H54.681V49.285H53.7485ZM55.5156 50.32C55.3573 50.32 55.234 50.28 55.1456 50.2C55.0573 50.1183 55.0131 49.9975 55.0131 49.8375V48.6575H55.4031V49.8325C55.4031 49.8892 55.4181 49.9333 55.4481 49.965C55.4781 49.995 55.519 50.01 55.5706 50.01C55.6323 50.01 55.6848 49.9933 55.7281 49.96L55.8331 50.235C55.7931 50.2633 55.7448 50.285 55.6881 50.3C55.6331 50.3133 55.5756 50.32 55.5156 50.32ZM54.8056 49.285V48.985H55.7381V49.285H54.8056ZM56.8471 50.32C56.7337 50.32 56.6346 50.295 56.5496 50.245C56.4646 50.195 56.3979 50.1192 56.3496 50.0175C56.3029 49.9142 56.2796 49.7842 56.2796 49.6275C56.2796 49.4692 56.3021 49.3392 56.3471 49.2375C56.3921 49.1358 56.4571 49.06 56.5421 49.01C56.6271 48.96 56.7287 48.935 56.8471 48.935C56.9737 48.935 57.0871 48.9642 57.1871 49.0225C57.2887 49.0792 57.3687 49.1592 57.4271 49.2625C57.4871 49.3658 57.5171 49.4875 57.5171 49.6275C57.5171 49.7692 57.4871 49.8917 57.4271 49.995C57.3687 50.0983 57.2887 50.1783 57.1871 50.235C57.0871 50.2917 56.9737 50.32 56.8471 50.32ZM56.0521 50.785V48.955H56.4246V49.23L56.4171 49.63L56.4421 50.0275V50.785H56.0521ZM56.7796 50C56.8446 50 56.9021 49.985 56.9521 49.955C57.0037 49.925 57.0446 49.8825 57.0746 49.8275C57.1062 49.7708 57.1221 49.7042 57.1221 49.6275C57.1221 49.5492 57.1062 49.4825 57.0746 49.4275C57.0446 49.3725 57.0037 49.33 56.9521 49.3C56.9021 49.27 56.8446 49.255 56.7796 49.255C56.7146 49.255 56.6562 49.27 56.6046 49.3C56.5529 49.33 56.5121 49.3725 56.4821 49.4275C56.4521 49.4825 56.4371 49.5492 56.4371 49.6275C56.4371 49.7042 56.4521 49.7708 56.4821 49.8275C56.5121 49.8825 56.5529 49.925 56.6046 49.955C56.6562 49.985 56.7146 50 56.7796 50ZM58.2306 50.32C58.1156 50.32 58.0048 50.3067 57.8981 50.28C57.7931 50.2517 57.7098 50.2167 57.6481 50.175L57.7781 49.895C57.8398 49.9333 57.9123 49.965 57.9956 49.99C58.0806 50.0133 58.164 50.025 58.2456 50.025C58.3356 50.025 58.399 50.0142 58.4356 49.9925C58.474 49.9708 58.4931 49.9408 58.4931 49.9025C58.4931 49.8708 58.4781 49.8475 58.4481 49.8325C58.4198 49.8158 58.3815 49.8033 58.3331 49.795C58.2848 49.7867 58.2315 49.7783 58.1731 49.77C58.1165 49.7617 58.059 49.7508 58.0006 49.7375C57.9423 49.7225 57.889 49.7008 57.8406 49.6725C57.7923 49.6442 57.7531 49.6058 57.7231 49.5575C57.6948 49.5092 57.6806 49.4467 57.6806 49.37C57.6806 49.285 57.7048 49.21 57.7531 49.145C57.8031 49.08 57.8748 49.0292 57.9681 48.9925C58.0615 48.9542 58.1731 48.935 58.3031 48.935C58.3948 48.935 58.4881 48.945 58.5831 48.965C58.6781 48.985 58.7573 49.0142 58.8206 49.0525L58.6906 49.33C58.6256 49.2917 58.5598 49.2658 58.4931 49.2525C58.4281 49.2375 58.3648 49.23 58.3031 49.23C58.2165 49.23 58.1531 49.2417 58.1131 49.265C58.0731 49.2883 58.0531 49.3183 58.0531 49.355C58.0531 49.3883 58.0673 49.4133 58.0956 49.43C58.1256 49.4467 58.1648 49.46 58.2131 49.47C58.2615 49.48 58.314 49.4892 58.3706 49.4975C58.429 49.5042 58.4873 49.515 58.5456 49.53C58.604 49.545 58.6565 49.5667 58.7031 49.595C58.7515 49.6217 58.7906 49.6592 58.8206 49.7075C58.8506 49.7542 58.8656 49.8158 58.8656 49.8925C58.8656 49.9758 58.8406 50.05 58.7906 50.115C58.7406 50.1783 58.6681 50.2283 58.5731 50.265C58.4798 50.3017 58.3656 50.32 58.2306 50.32ZM59.2538 49.4225C59.1871 49.4225 59.1296 49.4 59.0813 49.355C59.0346 49.3083 59.0113 49.2492 59.0113 49.1775C59.0113 49.1058 59.0346 49.0483 59.0813 49.005C59.1296 48.96 59.1871 48.9375 59.2538 48.9375C59.3221 48.9375 59.3796 48.96 59.4263 49.005C59.4729 49.0483 59.4963 49.1058 59.4963 49.1775C59.4963 49.2492 59.4729 49.3083 59.4263 49.355C59.3796 49.4 59.3221 49.4225 59.2538 49.4225ZM59.2538 50.32C59.1871 50.32 59.1296 50.2975 59.0813 50.2525C59.0346 50.2058 59.0113 50.1467 59.0113 50.075C59.0113 50.0033 59.0346 49.9458 59.0813 49.9025C59.1296 49.8575 59.1871 49.835 59.2538 49.835C59.3221 49.835 59.3796 49.8575 59.4263 49.9025C59.4729 49.9458 59.4963 50.0033 59.4963 50.075C59.4963 50.1467 59.4729 50.2058 59.4263 50.2525C59.3796 50.2975 59.3221 50.32 59.2538 50.32ZM59.6323 50.55L60.4573 48.195H60.8048L59.9798 50.55H59.6323ZM60.4282 50.55L61.2532 48.195H61.6007L60.7757 50.55H60.4282ZM61.9016 50.3L61.4166 48.955H61.7841L62.1866 50.1125H62.0116L62.4316 48.955H62.7616L63.1691 50.1125H62.9941L63.4091 48.955H63.7541L63.2666 50.3H62.8891L62.5316 49.3075H62.6466L62.2766 50.3H61.9016ZM64.2087 50.3L63.7237 48.955H64.0912L64.4937 50.1125H64.3187L64.7387 48.955H65.0687L65.4762 50.1125H65.3012L65.7162 48.955H66.0612L65.5737 50.3H65.1962L64.8387 49.3075H64.9537L64.5837 50.3H64.2087ZM66.5158 50.3L66.0308 48.955H66.3983L66.8008 50.1125H66.6258L67.0458 48.955H67.3758L67.7833 50.1125H67.6083L68.0233 48.955H68.3683L67.8808 50.3H67.5033L67.1458 49.3075H67.2608L66.8908 50.3H66.5158ZM68.6166 50.32C68.5499 50.32 68.4924 50.2975 68.4441 50.2525C68.3974 50.2058 68.3741 50.1467 68.3741 50.075C68.3741 50.0033 68.3974 49.9458 68.4441 49.9025C68.4924 49.8575 68.5499 49.835 68.6166 49.835C68.6849 49.835 68.7424 49.8575 68.7891 49.9025C68.8357 49.9458 68.8591 50.0033 68.8591 50.075C68.8591 50.1467 68.8357 50.2058 68.7891 50.2525C68.7424 50.2975 68.6849 50.32 68.6166 50.32ZM69.6862 50.32C69.5595 50.32 69.4454 50.2917 69.3437 50.235C69.242 50.1767 69.1612 50.0958 69.1012 49.9925C69.0429 49.8892 69.0137 49.7675 69.0137 49.6275C69.0137 49.4858 69.0429 49.3633 69.1012 49.26C69.1612 49.1567 69.242 49.0767 69.3437 49.02C69.4454 48.9633 69.5595 48.935 69.6862 48.935C69.7995 48.935 69.8987 48.96 69.9837 49.01C70.0687 49.06 70.1345 49.1358 70.1812 49.2375C70.2279 49.3392 70.2512 49.4692 70.2512 49.6275C70.2512 49.7842 70.2287 49.9142 70.1837 50.0175C70.1387 50.1192 70.0737 50.195 69.9887 50.245C69.9054 50.295 69.8045 50.32 69.6862 50.32ZM69.7537 50C69.817 50 69.8745 49.985 69.9262 49.955C69.9779 49.925 70.0187 49.8825 70.0487 49.8275C70.0804 49.7708 70.0962 49.7042 70.0962 49.6275C70.0962 49.5492 70.0804 49.4825 70.0487 49.4275C70.0187 49.3725 69.9779 49.33 69.9262 49.3C69.8745 49.27 69.817 49.255 69.7537 49.255C69.6887 49.255 69.6304 49.27 69.5787 49.3C69.527 49.33 69.4854 49.3725 69.4537 49.4275C69.4237 49.4825 69.4087 49.5492 69.4087 49.6275C69.4087 49.7042 69.4237 49.7708 69.4537 49.8275C69.4854 49.8825 69.527 49.925 69.5787 49.955C69.6304 49.985 69.6887 50 69.7537 50ZM70.1062 50.3V50.025L70.1137 49.625L70.0887 49.2275V48.445H70.4787V50.3H70.1062ZM71.4797 50.32C71.3363 50.32 71.2088 50.29 71.0972 50.23C70.9872 50.17 70.8997 50.0883 70.8347 49.985C70.7713 49.88 70.7397 49.7608 70.7397 49.6275C70.7397 49.4925 70.7713 49.3733 70.8347 49.27C70.8997 49.165 70.9872 49.0833 71.0972 49.025C71.2088 48.965 71.3363 48.935 71.4797 48.935C71.6213 48.935 71.748 48.965 71.8597 49.025C71.9713 49.0833 72.0588 49.1642 72.1222 49.2675C72.1855 49.3708 72.2172 49.4908 72.2172 49.6275C72.2172 49.7608 72.1855 49.88 72.1222 49.985C72.0588 50.0883 71.9713 50.17 71.8597 50.23C71.748 50.29 71.6213 50.32 71.4797 50.32ZM71.4797 50C71.5447 50 71.603 49.985 71.6547 49.955C71.7063 49.925 71.7472 49.8825 71.7772 49.8275C71.8072 49.7708 71.8222 49.7042 71.8222 49.6275C71.8222 49.5492 71.8072 49.4825 71.7772 49.4275C71.7472 49.3725 71.7063 49.33 71.6547 49.3C71.603 49.27 71.5447 49.255 71.4797 49.255C71.4147 49.255 71.3563 49.27 71.3047 49.3C71.253 49.33 71.2113 49.3725 71.1797 49.4275C71.1497 49.4825 71.1347 49.5492 71.1347 49.6275C71.1347 49.7042 71.1497 49.7708 71.1797 49.8275C71.2113 49.8825 71.253 49.925 71.3047 49.955C71.3563 49.985 71.4147 50 71.4797 50ZM74.2004 48.935C74.307 48.935 74.4012 48.9567 74.4829 49C74.5662 49.0417 74.6312 49.1067 74.6779 49.195C74.7262 49.2817 74.7504 49.3933 74.7504 49.53V50.3H74.3604V49.59C74.3604 49.4817 74.3379 49.4017 74.2929 49.35C74.2479 49.2983 74.1845 49.2725 74.1029 49.2725C74.0462 49.2725 73.9954 49.2858 73.9504 49.3125C73.9054 49.3375 73.8704 49.3758 73.8454 49.4275C73.8204 49.4792 73.8079 49.545 73.8079 49.625V50.3H73.4179V49.59C73.4179 49.4817 73.3954 49.4017 73.3504 49.35C73.307 49.2983 73.2445 49.2725 73.1629 49.2725C73.1062 49.2725 73.0554 49.2858 73.0104 49.3125C72.9654 49.3375 72.9304 49.3758 72.9054 49.4275C72.8804 49.4792 72.8679 49.545 72.8679 49.625V50.3H72.4779V48.955H72.8504V49.3225L72.7804 49.215C72.827 49.1233 72.8929 49.0542 72.9779 49.0075C73.0645 48.9592 73.1629 48.935 73.2729 48.935C73.3962 48.935 73.5037 48.9667 73.5954 49.03C73.6887 49.0917 73.7504 49.1867 73.7804 49.315L73.6429 49.2775C73.6879 49.1725 73.7595 49.0892 73.8579 49.0275C73.9579 48.9658 74.072 48.935 74.2004 48.935ZM75.9249 50.3V50.0375L75.8999 49.98V49.51C75.8999 49.4267 75.8741 49.3617 75.8224 49.315C75.7724 49.2683 75.6949 49.245 75.5899 49.245C75.5183 49.245 75.4474 49.2567 75.3774 49.28C75.3091 49.3017 75.2508 49.3317 75.2024 49.37L75.0624 49.0975C75.1358 49.0458 75.2241 49.0058 75.3274 48.9775C75.4308 48.9492 75.5358 48.935 75.6424 48.935C75.8474 48.935 76.0066 48.9833 76.1199 49.08C76.2333 49.1767 76.2899 49.3275 76.2899 49.5325V50.3H75.9249ZM75.5149 50.32C75.4099 50.32 75.3199 50.3025 75.2449 50.2675C75.1699 50.2308 75.1124 50.1817 75.0724 50.12C75.0324 50.0583 75.0124 49.9892 75.0124 49.9125C75.0124 49.8325 75.0316 49.7625 75.0699 49.7025C75.1099 49.6425 75.1724 49.5958 75.2574 49.5625C75.3424 49.5275 75.4533 49.51 75.5899 49.51H75.9474V49.7375H75.6324C75.5408 49.7375 75.4774 49.7525 75.4424 49.7825C75.4091 49.8125 75.3924 49.85 75.3924 49.895C75.3924 49.945 75.4116 49.985 75.4499 50.015C75.4899 50.0433 75.5441 50.0575 75.6124 50.0575C75.6774 50.0575 75.7358 50.0425 75.7874 50.0125C75.8391 49.9808 75.8766 49.935 75.8999 49.875L75.9599 50.055C75.9316 50.1417 75.8799 50.2075 75.8049 50.2525C75.7299 50.2975 75.6333 50.32 75.5149 50.32ZM76.6429 50.3V48.955H77.0329V50.3H76.6429ZM76.8379 48.7675C76.7662 48.7675 76.7079 48.7467 76.6629 48.705C76.6179 48.6633 76.5954 48.6117 76.5954 48.55C76.5954 48.4883 76.6179 48.4367 76.6629 48.395C76.7079 48.3533 76.7662 48.3325 76.8379 48.3325C76.9096 48.3325 76.9679 48.3525 77.0129 48.3925C77.0579 48.4308 77.0804 48.4808 77.0804 48.5425C77.0804 48.6075 77.0579 48.6617 77.0129 48.705C76.9696 48.7467 76.9112 48.7675 76.8379 48.7675ZM78.2123 48.935C78.319 48.935 78.414 48.9567 78.4973 49C78.5823 49.0417 78.649 49.1067 78.6973 49.195C78.7457 49.2817 78.7698 49.3933 78.7698 49.53V50.3H78.3798V49.59C78.3798 49.4817 78.3557 49.4017 78.3073 49.35C78.2607 49.2983 78.194 49.2725 78.1073 49.2725C78.0457 49.2725 77.9898 49.2858 77.9398 49.3125C77.8915 49.3375 77.8532 49.3767 77.8248 49.43C77.7982 49.4833 77.7848 49.5517 77.7848 49.635V50.3H77.3948V48.955H77.7673V49.3275L77.6973 49.215C77.7457 49.125 77.8148 49.0558 77.9048 49.0075C77.9948 48.9592 78.0973 48.935 78.2123 48.935ZM79.2709 50.32C79.2042 50.32 79.1467 50.2975 79.0984 50.2525C79.0517 50.2058 79.0284 50.1467 79.0284 50.075C79.0284 50.0033 79.0517 49.9458 79.0984 49.9025C79.1467 49.8575 79.2042 49.835 79.2709 49.835C79.3392 49.835 79.3967 49.8575 79.4434 49.9025C79.49 49.9458 79.5134 50.0033 79.5134 50.075C79.5134 50.1467 79.49 50.2058 79.4434 50.2525C79.3967 50.2975 79.3392 50.32 79.2709 50.32ZM80.413 50.32C80.268 50.32 80.1388 50.2908 80.0255 50.2325C79.9122 50.1725 79.823 50.09 79.758 49.985C79.6947 49.88 79.663 49.7608 79.663 49.6275C79.663 49.4925 79.6947 49.3733 79.758 49.27C79.823 49.165 79.9122 49.0833 80.0255 49.025C80.1388 48.965 80.268 48.935 80.413 48.935C80.5547 48.935 80.678 48.965 80.783 49.025C80.888 49.0833 80.9655 49.1675 81.0155 49.2775L80.713 49.44C80.678 49.3767 80.6338 49.33 80.5805 49.3C80.5288 49.27 80.4722 49.255 80.4105 49.255C80.3438 49.255 80.2838 49.27 80.2305 49.3C80.1772 49.33 80.1347 49.3725 80.103 49.4275C80.073 49.4825 80.058 49.5492 80.058 49.6275C80.058 49.7058 80.073 49.7725 80.103 49.8275C80.1347 49.8825 80.1772 49.925 80.2305 49.955C80.2838 49.985 80.3438 50 80.4105 50C80.4722 50 80.5288 49.9858 80.5805 49.9575C80.6338 49.9275 80.678 49.88 80.713 49.815L81.0155 49.98C80.9655 50.0883 80.888 50.1725 80.783 50.2325C80.678 50.2908 80.5547 50.32 80.413 50.32ZM81.863 50.32C81.7196 50.32 81.5921 50.29 81.4805 50.23C81.3705 50.17 81.283 50.0883 81.218 49.985C81.1546 49.88 81.123 49.7608 81.123 49.6275C81.123 49.4925 81.1546 49.3733 81.218 49.27C81.283 49.165 81.3705 49.0833 81.4805 49.025C81.5921 48.965 81.7196 48.935 81.863 48.935C82.0046 48.935 82.1313 48.965 82.243 49.025C82.3546 49.0833 82.4421 49.1642 82.5055 49.2675C82.5688 49.3708 82.6005 49.4908 82.6005 49.6275C82.6005 49.7608 82.5688 49.88 82.5055 49.985C82.4421 50.0883 82.3546 50.17 82.243 50.23C82.1313 50.29 82.0046 50.32 81.863 50.32ZM81.863 50C81.928 50 81.9863 49.985 82.038 49.955C82.0896 49.925 82.1305 49.8825 82.1605 49.8275C82.1905 49.7708 82.2055 49.7042 82.2055 49.6275C82.2055 49.5492 82.1905 49.4825 82.1605 49.4275C82.1305 49.3725 82.0896 49.33 82.038 49.3C81.9863 49.27 81.928 49.255 81.863 49.255C81.798 49.255 81.7396 49.27 81.688 49.3C81.6363 49.33 81.5946 49.3725 81.563 49.4275C81.533 49.4825 81.518 49.5492 81.518 49.6275C81.518 49.7042 81.533 49.7708 81.563 49.8275C81.5946 49.8825 81.6363 49.925 81.688 49.955C81.7396 49.985 81.798 50 81.863 50ZM84.5837 48.935C84.6903 48.935 84.7845 48.9567 84.8662 49C84.9495 49.0417 85.0145 49.1067 85.0612 49.195C85.1095 49.2817 85.1337 49.3933 85.1337 49.53V50.3H84.7437V49.59C84.7437 49.4817 84.7212 49.4017 84.6762 49.35C84.6312 49.2983 84.5678 49.2725 84.4862 49.2725C84.4295 49.2725 84.3787 49.2858 84.3337 49.3125C84.2887 49.3375 84.2537 49.3758 84.2287 49.4275C84.2037 49.4792 84.1912 49.545 84.1912 49.625V50.3H83.8012V49.59C83.8012 49.4817 83.7787 49.4017 83.7337 49.35C83.6903 49.2983 83.6278 49.2725 83.5462 49.2725C83.4895 49.2725 83.4387 49.2858 83.3937 49.3125C83.3487 49.3375 83.3137 49.3758 83.2887 49.4275C83.2637 49.4792 83.2512 49.545 83.2512 49.625V50.3H82.8612V48.955H83.2337V49.3225L83.1637 49.215C83.2103 49.1233 83.2762 49.0542 83.3612 49.0075C83.4478 48.9592 83.5462 48.935 83.6562 48.935C83.7795 48.935 83.887 48.9667 83.9787 49.03C84.072 49.0917 84.1337 49.1867 84.1637 49.315L84.0262 49.2775C84.0712 49.1725 84.1428 49.0892 84.2412 49.0275C84.3412 48.9658 84.4553 48.935 84.5837 48.935Z" fill="#1B7C97"/>
<path d="M39.6497 51.1497C39.7767 51.2766 39.9825 51.2765 40.1096 51.1497C40.2367 51.0226 40.2373 50.8162 40.1103 50.6891L39.2029 49.7817H41.5438C41.6929 49.7817 41.8137 49.6608 41.8138 49.5117C41.8138 49.3626 41.6929 49.2418 41.5438 49.2417H39.1794L40.1103 48.3109C40.2373 48.1838 40.2367 47.9774 40.1096 47.8503C39.9825 47.7236 39.7767 47.7234 39.6497 47.8503L38.2299 49.2701C38.1032 49.3971 38.1032 49.6029 38.2299 49.7299L39.6497 51.1497Z" fill="#2398B8"/>
<path d="M46.2759 47.862C46.1488 47.7351 45.9431 47.7352 45.816 47.862C45.6889 47.9891 45.6883 48.1955 45.8153 48.3226L46.7227 49.23H44.3818C44.2327 49.23 44.1119 49.3509 44.1118 49.4999C44.1118 49.6491 44.2327 49.7699 44.3818 49.7699H46.7462L45.8153 50.7008C45.6883 50.8279 45.6889 51.0343 45.816 51.1614C45.9431 51.2881 46.1489 51.2883 46.2759 51.1614L47.6956 49.7416C47.8224 49.6146 47.8223 49.4088 47.6956 49.2817L46.2759 47.862Z" fill="#2398B8"/>
<g clip-path="url(#clip0_2154_2)">
<mask id="mask0_2154_2" style="mask-type:luminance" maskUnits="userSpaceOnUse" x="42" y="57" width="12" height="12">
<path d="M54 57H42V69H54V57Z" fill="white"/>
</mask>
<g mask="url(#mask0_2154_2)">
<path d="M48 57C51.3137 57 54 59.6863 54 63C54 66.3137 51.3137 69 48 69C44.6863 69 42 66.3137 42 63C42 59.6863 44.6863 57 48 57ZM46.3259 66.3846C46.3898 66.5327 46.4572 66.6731 46.5282 66.805C46.8665 67.4331 47.2232 67.7825 47.5385 67.9498V66.3846H46.3259ZM48.4615 67.9498C48.7768 67.7825 49.1335 67.4331 49.4718 66.805C49.5428 66.6731 49.6102 66.5327 49.6741 66.3846H48.4615V67.9498ZM44.2163 66.3846C44.6967 66.9212 45.2893 67.3549 45.9575 67.6489C45.718 67.2856 45.5072 66.8596 45.3322 66.3846H44.2163ZM50.6678 66.3846C50.4928 66.8597 50.2819 67.2855 50.0424 67.6489C50.7106 67.3549 51.3033 66.9212 51.7837 66.3846H50.6678ZM42.9441 63.4615C43.0091 64.1823 43.2247 64.8594 43.5592 65.4615H45.0529C44.903 64.8434 44.8077 64.1697 44.7787 63.4615H42.9441ZM48.4615 65.4615H49.994C50.1571 64.8627 50.2649 64.1874 50.2973 63.4615H48.4615V65.4615ZM51.2213 63.4615C51.1923 64.1697 51.097 64.8434 50.9471 65.4615H52.4408C52.7753 64.8594 52.9909 64.1823 53.0559 63.4615H51.2213ZM45.7027 63.4615C45.7351 64.1874 45.8429 64.8627 46.006 65.4615H47.5385V63.4615H45.7027ZM43.5592 60.5385C43.2247 61.1406 43.0091 61.8177 42.9441 62.5385H44.7787C44.8077 61.8303 44.903 61.1566 45.0529 60.5385H43.5592ZM48.4615 62.5385H50.2973C50.2649 61.8126 50.1571 61.1373 49.994 60.5385H48.4615V62.5385ZM50.9471 60.5385C51.097 61.1566 51.1923 61.8303 51.2213 62.5385H53.0559C52.9909 61.8177 52.7753 61.1406 52.4408 60.5385H50.9471ZM46.006 60.5385C45.8429 61.1373 45.7351 61.8126 45.7027 62.5385H47.5385V60.5385H46.006ZM45.9575 58.351C45.2893 58.645 44.6967 59.0788 44.2163 59.6154H45.3322C45.5073 59.1403 45.718 58.7143 45.9575 58.351ZM48.4615 59.6154H49.6741C49.6102 59.4673 49.5428 59.3269 49.4718 59.195C49.1335 58.5669 48.7768 58.2174 48.4615 58.05V59.6154ZM50.0424 58.351C50.2819 58.7143 50.4927 59.1403 50.6678 59.6154H51.7837C51.3033 59.0788 50.7106 58.645 50.0424 58.351ZM47.5385 58.05C47.2232 58.2174 46.8665 58.5669 46.5282 59.195C46.4572 59.3269 46.3898 59.4673 46.3259 59.6154H47.5385V58.05Z" fill="#369DC3"/>
</g>
</g>
<path d="M59.372 65.236V63.928L63.332 58.6H65.372L61.496 63.928L60.548 63.652H67.16V65.236H59.372ZM63.896 67V65.236L63.956 63.652V62.08H65.792V67H63.896ZM71.3414 67.144C70.6534 67.144 70.0374 66.976 69.4934 66.64C68.9494 66.296 68.5214 65.8 68.2094 65.152C67.8974 64.504 67.7414 63.72 67.7414 62.8C67.7414 61.88 67.8974 61.096 68.2094 60.448C68.5214 59.8 68.9494 59.308 69.4934 58.972C70.0374 58.628 70.6534 58.456 71.3414 58.456C72.0374 58.456 72.6534 58.628 73.1894 58.972C73.7334 59.308 74.1614 59.8 74.4734 60.448C74.7854 61.096 74.9414 61.88 74.9414 62.8C74.9414 63.72 74.7854 64.504 74.4734 65.152C74.1614 65.8 73.7334 66.296 73.1894 66.64C72.6534 66.976 72.0374 67.144 71.3414 67.144ZM71.3414 65.5C71.6694 65.5 71.9534 65.408 72.1934 65.224C72.4414 65.04 72.6334 64.748 72.7694 64.348C72.9134 63.948 72.9854 63.432 72.9854 62.8C72.9854 62.168 72.9134 61.652 72.7694 61.252C72.6334 60.852 72.4414 60.56 72.1934 60.376C71.9534 60.192 71.6694 60.1 71.3414 60.1C71.0214 60.1 70.7374 60.192 70.4894 60.376C70.2494 60.56 70.0574 60.852 69.9134 61.252C69.7774 61.652 69.7094 62.168 69.7094 62.8C69.7094 63.432 69.7774 63.948 69.9134 64.348C70.0574 64.748 70.2494 65.04 70.4894 65.224C70.7374 65.408 71.0214 65.5 71.3414 65.5ZM75.79 65.236V63.928L79.75 58.6H81.79L77.914 63.928L76.966 63.652H83.578V65.236H75.79ZM80.314 67V65.236L80.374 63.652V62.08H82.21V67H80.314Z" fill="#369DC3"/>
<defs>
<filter id="filter0_d_2154_2" x="46" y="100" width="35" height="13" filterUnits="userSpaceOnUse" color-interpolation-filters="sRGB">
<feFlood flood-opacity="0" result="BackgroundImageFix"/>
<feColorMatrix in="SourceAlpha" type="matrix" values="0 0 0 0 0 0 0 0 0 0 0 0 0 0 0 0 0 0 127 0" result="hardAlpha"/>
<feMorphology radius="1" operator="dilate" in="SourceAlpha" result="effect1_dropShadow_2154_2"/>
<feOffset/>
<feGaussianBlur stdDeviation="2.5"/>
<feComposite in2="hardAlpha" operator="out"/>
<feColorMatrix type="matrix" values="0 0 0 0 0 0 0 0 0 0 0 0 0 0 0 0 0 0 0.25 0"/>
<feBlend mode="normal" in2="BackgroundImageFix" result="effect1_dropShadow_2154_2"/>
<feBlend mode="normal" in="SourceGraphic" in2="effect1_dropShadow_2154_2" result="shape"/>
</filter>
<linearGradient id="paint0_linear_2154_2" x1="65.5" y1="52" x2="98" y2="84" gradientUnits="userSpaceOnUse">
<stop stop-color="#A8E3E7"/>
<stop offset="0.953125" stop-color="#28C6D0"/>
</linearGradient>
<clipPath id="clip0_2154_2">
<rect width="12" height="12" fill="white" transform="translate(42 57)"/>
</clipPath>
</defs>
</svg>
