<svg width="63" height="32" viewBox="0 0 63 32" fill="none" xmlns="http://www.w3.org/2000/svg">
<path d="M4.77477 7.11871H13.7233C16.3498 7.14111 18.253 7.91039 19.433 9.42527C20.613 10.9402 21.0023 13.0093 20.6016 15.6326C20.446 16.8314 20.1008 18.007 19.5665 19.1603C19.0543 20.3136 18.3424 21.3536 17.4296 22.281C16.3164 23.4566 15.1257 24.2029 13.8569 24.5197C12.588 24.8365 11.2745 24.9946 9.91683 24.9946H5.91003L4.64121 31.4394H0L4.77477 7.11871ZM8.6814 10.9856L6.678 21.1616C6.81156 21.184 6.94512 21.1955 7.07868 21.1955C7.23429 21.1955 7.39053 21.1955 7.54614 21.1955C9.6831 21.2179 11.4641 21.0035 12.8885 20.551C14.313 20.0762 15.2706 18.4256 15.7601 15.5987C16.1608 13.2243 15.7601 11.856 14.558 11.4944C13.378 11.1328 11.8982 10.9632 10.1172 10.9856C9.85005 11.008 9.59427 11.0195 9.3492 11.0195C9.12681 11.0195 8.89308 11.0195 8.64801 11.0195L8.6814 10.9856Z" fill="#DFD0B8"/>
<path d="M25.8885 0.640015H30.4963L29.1941 7.11873H33.3345C35.605 7.16417 37.2965 7.63905 38.4097 8.54337C39.545 9.44769 39.8789 11.1667 39.4114 13.6992L37.1743 24.9946H32.4997L34.6367 14.208C34.8591 13.0771 34.7923 12.2746 34.4363 11.7997C34.0804 11.3248 33.3124 11.0874 32.1324 11.0874L28.4261 11.0535L25.6881 24.9946H21.0803L25.8885 0.640015Z" fill="#DFD0B8"/>
<path d="M44.3595 7.11871H53.308C55.9345 7.14111 57.8377 7.91039 59.0177 9.42527C60.1977 10.9402 60.587 13.0093 60.1863 15.6326C60.0307 16.8314 59.6855 18.007 59.1513 19.1603C58.6391 20.3136 57.9272 21.3536 57.0143 22.281C55.9011 23.4566 54.7104 24.2029 53.4416 24.5197C52.1727 24.8365 50.8592 24.9946 49.5015 24.9946H45.4947L44.2259 31.4394H39.5847L44.3595 7.11871ZM48.2661 10.9856L46.2627 21.1616C46.3963 21.184 46.5298 21.1955 46.6634 21.1955C46.819 21.1955 46.9752 21.1955 47.1309 21.1955C49.2678 21.2179 51.0488 21.0035 52.4733 20.551C53.8977 20.0762 54.8553 18.4256 55.3448 15.5987C55.7455 13.2243 55.3448 11.856 54.1428 11.4944C52.9628 11.1328 51.4829 10.9632 49.7019 10.9856C49.4348 11.008 49.179 11.0195 48.9339 11.0195C48.7115 11.0195 48.4778 11.0195 48.2327 11.0195L48.2661 10.9856Z" fill="#DFD0B8"/>
</svg>
