<svg width="104" height="104" viewBox="0 0 104 104" fill="none" xmlns="http://www.w3.org/2000/svg">
<path d="M59.3125 70.6875H43.875V86.125H59.3125V70.6875Z" fill="white"/>
<g filter="url(#filter0_d_1033_392)">
<path d="M60.5312 86.125H42.6562C42.4319 86.125 42.25 86.3069 42.25 86.5312C42.25 86.7556 42.4319 86.9375 42.6562 86.9375H60.5312C60.7556 86.9375 60.9375 86.7556 60.9375 86.5312C60.9375 86.3069 60.7556 86.125 60.5312 86.125Z" fill="#F7F7F7"/>
</g>
<path d="M87.75 20.3125H16.25C15.3525 20.3125 14.625 21.04 14.625 21.9375V70.6875C14.625 71.585 15.3525 72.3125 16.25 72.3125H87.75C88.6475 72.3125 89.375 71.585 89.375 70.6875V21.9375C89.375 21.04 88.6475 20.3125 87.75 20.3125Z" fill="black"/>
<path d="M86.9375 21.9375H17.0625C16.6138 21.9375 16.25 22.3013 16.25 22.75V69.875C16.25 70.3237 16.6138 70.6875 17.0625 70.6875H86.9375C87.3862 70.6875 87.75 70.3237 87.75 69.875V22.75C87.75 22.3013 87.3862 21.9375 86.9375 21.9375Z" fill="url(#paint0_linear_1033_392)"/>
<path d="M84.0938 71.9062C84.3181 71.9062 84.5 71.7244 84.5 71.5C84.5 71.2756 84.3181 71.0938 84.0938 71.0938C83.8694 71.0938 83.6875 71.2756 83.6875 71.5C83.6875 71.7244 83.8694 71.9062 84.0938 71.9062Z" fill="#559858"/>
<path d="M80.8438 71.9062C81.0681 71.9062 81.25 71.7244 81.25 71.5C81.25 71.2756 81.0681 71.0938 80.8438 71.0938C80.6194 71.0938 80.4375 71.2756 80.4375 71.5C80.4375 71.7244 80.6194 71.9062 80.8438 71.9062Z" fill="#E92B2B"/>
<path d="M82.4688 71.9062C82.6931 71.9062 82.875 71.7244 82.875 71.5C82.875 71.2756 82.6931 71.0938 82.4688 71.0938C82.2444 71.0938 82.0625 71.2756 82.0625 71.5C82.0625 71.7244 82.2444 71.9062 82.4688 71.9062Z" fill="#C9DE8E"/>
<path d="M74.75 33.3125H30.0625C29.6138 33.3125 29.25 33.6763 29.25 34.125V58.5C29.25 58.9487 29.6138 59.3125 30.0625 59.3125H74.75C75.1987 59.3125 75.5625 58.9487 75.5625 58.5V34.125C75.5625 33.6763 75.1987 33.3125 74.75 33.3125Z" fill="white"/>
<path d="M29.25 34.125C29.25 33.6763 29.6138 33.3125 30.0625 33.3125H74.75C75.1987 33.3125 75.5625 33.6763 75.5625 34.125V36.5625H29.25V34.125Z" fill="#3F7AAA"/>
<path d="M30.875 35.75C31.3237 35.75 31.6875 35.3862 31.6875 34.9375C31.6875 34.4888 31.3237 34.125 30.875 34.125C30.4263 34.125 30.0625 34.4888 30.0625 34.9375C30.0625 35.3862 30.4263 35.75 30.875 35.75Z" fill="#EF3333"/>
<path d="M33.3125 35.75C33.7612 35.75 34.125 35.3862 34.125 34.9375C34.125 34.4888 33.7612 34.125 33.3125 34.125C32.8638 34.125 32.5 34.4888 32.5 34.9375C32.5 35.3862 32.8638 35.75 33.3125 35.75Z" fill="#E4FF4A"/>
<path d="M35.75 35.75C36.1987 35.75 36.5625 35.3862 36.5625 34.9375C36.5625 34.4888 36.1987 34.125 35.75 34.125C35.3013 34.125 34.9375 34.4888 34.9375 34.9375C34.9375 35.3862 35.3013 35.75 35.75 35.75Z" fill="#7DE63C"/>
<path d="M73.125 38.1875H41.4375C40.9888 38.1875 40.625 38.5513 40.625 39V41.4375C40.625 41.8862 40.9888 42.25 41.4375 42.25H73.125C73.5737 42.25 73.9375 41.8862 73.9375 41.4375V39C73.9375 38.5513 73.5737 38.1875 73.125 38.1875Z" fill="#BDE4F5"/>
<path d="M43.0605 39.7595C43.1472 39.7595 43.2243 39.7771 43.292 39.8123C43.3611 39.8461 43.4153 39.899 43.4545 39.9707C43.4938 40.0411 43.5134 40.1318 43.5134 40.2429V40.8685H43.1966V40.2916C43.1966 40.2036 43.1769 40.1386 43.1376 40.0966C43.0997 40.0546 43.0456 40.0337 42.9751 40.0337C42.925 40.0337 42.8797 40.0445 42.8391 40.0662C42.7998 40.0865 42.7686 40.1183 42.7456 40.1616C42.7239 40.2049 42.7131 40.2605 42.7131 40.3282V40.8685H42.3962V39.3613H42.7131V40.0784L42.642 39.987C42.6813 39.9138 42.7375 39.8576 42.8106 39.8184C42.8837 39.7791 42.967 39.7595 43.0605 39.7595ZM44.2475 40.8848C44.1189 40.8848 44.0186 40.8523 43.9469 40.7873C43.8752 40.7209 43.8392 40.6227 43.8392 40.4927V39.534H44.1561V40.4887C44.1561 40.5347 44.1683 40.5706 44.1927 40.5963C44.2171 40.6207 44.2502 40.6329 44.2922 40.6329C44.3423 40.6329 44.385 40.6193 44.4202 40.5923L44.5055 40.8157C44.473 40.8387 44.4337 40.8563 44.3877 40.8685C44.343 40.8793 44.2963 40.8848 44.2475 40.8848ZM43.6706 40.0438V39.8001H44.4283V40.0438H43.6706ZM45.1064 40.8848C44.9778 40.8848 44.8776 40.8523 44.8058 40.7873C44.734 40.7209 44.6981 40.6227 44.6981 40.4927V39.534H45.015V40.4887C45.015 40.5347 45.0272 40.5706 45.0516 40.5963C45.0759 40.6207 45.1092 40.6329 45.1511 40.6329C45.2012 40.6329 45.2439 40.6193 45.2791 40.5923L45.3644 40.8157C45.3319 40.8387 45.2926 40.8563 45.2466 40.8685C45.2019 40.8793 45.1552 40.8848 45.1064 40.8848ZM44.5295 40.0438V39.8001H45.2872V40.0438H44.5295ZM46.1883 40.8848C46.0961 40.8848 46.0156 40.8645 45.9465 40.8238C45.8775 40.7832 45.8233 40.7216 45.784 40.639C45.7461 40.5551 45.7272 40.4494 45.7272 40.3221C45.7272 40.1935 45.7454 40.0879 45.782 40.0052C45.8186 39.9226 45.8714 39.861 45.9404 39.8204C46.0095 39.7798 46.0921 39.7595 46.1883 39.7595C46.2911 39.7595 46.3833 39.7832 46.4645 39.8305C46.5471 39.8766 46.6121 39.9416 46.6595 40.0255C46.7083 40.1095 46.7326 40.2084 46.7326 40.3221C46.7326 40.4372 46.7083 40.5368 46.6595 40.6207C46.6121 40.7046 46.5471 40.7696 46.4645 40.8157C46.3833 40.8618 46.2911 40.8848 46.1883 40.8848ZM45.5423 41.2626V39.7757H45.845V39.9991L45.8389 40.3241L45.8592 40.6471V41.2626H45.5423ZM46.1334 40.6248C46.1862 40.6248 46.2329 40.6126 46.2736 40.5882C46.3155 40.5638 46.3487 40.5293 46.3731 40.4846C46.3988 40.4385 46.4117 40.3844 46.4117 40.3221C46.4117 40.2585 46.3988 40.2043 46.3731 40.1596C46.3487 40.1149 46.3155 40.0804 46.2736 40.056C46.2329 40.0316 46.1862 40.0195 46.1334 40.0195C46.0806 40.0195 46.0332 40.0316 45.9912 40.056C45.9492 40.0804 45.9161 40.1149 45.8917 40.1596C45.8673 40.2043 45.8551 40.2585 45.8551 40.3221C45.8551 40.3844 45.8673 40.4385 45.8917 40.4846C45.9161 40.5293 45.9492 40.5638 45.9912 40.5882C46.0332 40.6126 46.0806 40.6248 46.1334 40.6248ZM47.3124 40.8848C47.2189 40.8848 47.1289 40.874 47.0422 40.8523C46.9569 40.8293 46.8892 40.8008 46.8391 40.767L46.9447 40.5395C46.9948 40.5706 47.0537 40.5963 47.1214 40.6166C47.1905 40.6356 47.2582 40.6451 47.3245 40.6451C47.3977 40.6451 47.4492 40.6363 47.4789 40.6187C47.5101 40.601 47.5256 40.5767 47.5256 40.5455C47.5256 40.5198 47.5134 40.5009 47.4891 40.4887C47.4661 40.4751 47.435 40.4649 47.3956 40.4582C47.3564 40.4515 47.3131 40.4446 47.2656 40.4379C47.2196 40.4311 47.1729 40.4223 47.1255 40.4115C47.0781 40.3993 47.0348 40.3817 46.9955 40.3587C46.9562 40.3357 46.9244 40.3045 46.9 40.2652C46.877 40.226 46.8655 40.1752 46.8655 40.1129C46.8655 40.0438 46.8851 39.9829 46.9244 39.9301C46.965 39.8773 47.0233 39.836 47.0991 39.8062C47.175 39.7751 47.2656 39.7595 47.3713 39.7595C47.4458 39.7595 47.5216 39.7676 47.5988 39.7838C47.6759 39.8001 47.7403 39.8238 47.7917 39.8549L47.6861 40.0804C47.6333 40.0493 47.5798 40.0282 47.5256 40.0174C47.4728 40.0052 47.4214 39.9991 47.3713 39.9991C47.3009 39.9991 47.2494 40.0086 47.2169 40.0276C47.1844 40.0465 47.1681 40.0709 47.1681 40.1007C47.1681 40.1278 47.1797 40.1481 47.2027 40.1616C47.227 40.1752 47.2589 40.186 47.2981 40.1941C47.3375 40.2023 47.3801 40.2097 47.4261 40.2165C47.4736 40.2219 47.5209 40.2307 47.5683 40.2429C47.6157 40.2551 47.6584 40.2727 47.6963 40.2957C47.7356 40.3174 47.7674 40.3479 47.7917 40.3871C47.8161 40.4251 47.8283 40.4751 47.8283 40.5374C47.8283 40.6051 47.808 40.6654 47.7674 40.7182C47.7267 40.7696 47.6678 40.8103 47.5906 40.8401C47.5148 40.8699 47.422 40.8848 47.3124 40.8848ZM48.1437 40.1555C48.0895 40.1555 48.0428 40.1373 48.0035 40.1007C47.9656 40.0628 47.9467 40.0147 47.9467 39.9565C47.9467 39.8982 47.9656 39.8515 48.0035 39.8163C48.0428 39.7798 48.0895 39.7615 48.1437 39.7615C48.1992 39.7615 48.2459 39.7798 48.2839 39.8163C48.3217 39.8515 48.3407 39.8982 48.3407 39.9565C48.3407 40.0147 48.3217 40.0628 48.2839 40.1007C48.2459 40.1373 48.1992 40.1555 48.1437 40.1555ZM48.1437 40.8848C48.0895 40.8848 48.0428 40.8665 48.0035 40.8299C47.9656 40.792 47.9467 40.744 47.9467 40.6857C47.9467 40.6274 47.9656 40.5807 48.0035 40.5455C48.0428 40.509 48.0895 40.4907 48.1437 40.4907C48.1992 40.4907 48.2459 40.509 48.2839 40.5455C48.3217 40.5807 48.3407 40.6274 48.3407 40.6857C48.3407 40.744 48.3217 40.792 48.2839 40.8299C48.2459 40.8665 48.1992 40.8848 48.1437 40.8848ZM48.4512 41.0716L49.1215 39.1582H49.4039L48.7336 41.0716H48.4512ZM49.0979 41.0716L49.7682 39.1582H50.0506L49.3802 41.0716H49.0979ZM50.295 40.8685L49.901 39.7757H50.1996L50.5266 40.7162H50.3844L50.7257 39.7757H50.9938L51.3249 40.7162H51.1827L51.5199 39.7757H51.8002L51.4041 40.8685H51.0974L50.8069 40.0621H50.9004L50.5997 40.8685H50.295ZM52.1696 40.8685L51.7755 39.7757H52.0741L52.4011 40.7162H52.2589L52.6002 39.7757H52.8683L53.1994 40.7162H53.0572L53.3944 39.7757H53.6747L53.2786 40.8685H52.9719L52.6814 40.0621H52.7749L52.4742 40.8685H52.1696ZM54.0441 40.8685L53.65 39.7757H53.9486L54.2756 40.7162H54.1335L54.4747 39.7757H54.7428L55.0739 40.7162H54.9317L55.2689 39.7757H55.5492L55.1531 40.8685H54.8464L54.556 40.0621H54.6494L54.3488 40.8685H54.0441ZM55.751 40.8848C55.6968 40.8848 55.6501 40.8665 55.6108 40.8299C55.5729 40.792 55.5539 40.744 55.5539 40.6857C55.5539 40.6274 55.5729 40.5807 55.6108 40.5455C55.6501 40.509 55.6968 40.4907 55.751 40.4907C55.8065 40.4907 55.8532 40.509 55.8911 40.5455C55.929 40.5807 55.948 40.6274 55.948 40.6857C55.948 40.744 55.929 40.792 55.8911 40.8299C55.8532 40.8665 55.8065 40.8848 55.751 40.8848ZM56.62 40.8848C56.5171 40.8848 56.4244 40.8618 56.3417 40.8157C56.2591 40.7683 56.1935 40.7026 56.1447 40.6187C56.0973 40.5347 56.0736 40.4359 56.0736 40.3221C56.0736 40.207 56.0973 40.1074 56.1447 40.0235C56.1935 39.9396 56.2591 39.8746 56.3417 39.8285C56.4244 39.7824 56.5171 39.7595 56.62 39.7595C56.7121 39.7595 56.7927 39.7798 56.8617 39.8204C56.9308 39.861 56.9843 39.9226 57.0222 40.0052C57.0602 40.0879 57.0791 40.1935 57.0791 40.3221C57.0791 40.4494 57.0608 40.5551 57.0242 40.639C56.9877 40.7216 56.9349 40.7832 56.8658 40.8238C56.7981 40.8645 56.7161 40.8848 56.62 40.8848ZM56.6749 40.6248C56.7263 40.6248 56.773 40.6126 56.815 40.5882C56.857 40.5638 56.8902 40.5293 56.9146 40.4846C56.9403 40.4385 56.9532 40.3844 56.9532 40.3221C56.9532 40.2585 56.9403 40.2043 56.9146 40.1596C56.8902 40.1149 56.857 40.0804 56.815 40.056C56.773 40.0316 56.7263 40.0195 56.6749 40.0195C56.6221 40.0195 56.5747 40.0316 56.5327 40.056C56.4907 40.0804 56.4569 40.1149 56.4311 40.1596C56.4067 40.2043 56.3946 40.2585 56.3946 40.3221C56.3946 40.3844 56.4067 40.4385 56.4311 40.4846C56.4569 40.5293 56.4907 40.5638 56.5327 40.5882C56.5747 40.6126 56.6221 40.6248 56.6749 40.6248ZM56.9613 40.8685V40.6451L56.9674 40.3201L56.9471 39.9971V39.3613H57.2639V40.8685H56.9613ZM58.0772 40.8848C57.9607 40.8848 57.8571 40.8604 57.7665 40.8116C57.6771 40.7629 57.606 40.6965 57.5532 40.6126C57.5017 40.5273 57.476 40.4304 57.476 40.3221C57.476 40.2124 57.5017 40.1156 57.5532 40.0316C57.606 39.9463 57.6771 39.8799 57.7665 39.8326C57.8571 39.7838 57.9607 39.7595 58.0772 39.7595C58.1923 39.7595 58.2952 39.7838 58.386 39.8326C58.4767 39.8799 58.5478 39.9457 58.5993 40.0296C58.6507 40.1135 58.6765 40.211 58.6765 40.3221C58.6765 40.4304 58.6507 40.5273 58.5993 40.6126C58.5478 40.6965 58.4767 40.7629 58.386 40.8116C58.2952 40.8604 58.1923 40.8848 58.0772 40.8848ZM58.0772 40.6248C58.1301 40.6248 58.1774 40.6126 58.2194 40.5882C58.2614 40.5638 58.2946 40.5293 58.319 40.4846C58.3433 40.4385 58.3555 40.3844 58.3555 40.3221C58.3555 40.2585 58.3433 40.2043 58.319 40.1596C58.2946 40.1149 58.2614 40.0804 58.2194 40.056C58.1774 40.0316 58.1301 40.0195 58.0772 40.0195C58.0244 40.0195 57.977 40.0316 57.9351 40.056C57.8931 40.0804 57.8592 40.1149 57.8335 40.1596C57.8091 40.2043 57.7969 40.2585 57.7969 40.3221C57.7969 40.3844 57.8091 40.4385 57.8335 40.4846C57.8592 40.5293 57.8931 40.5638 57.9351 40.5882C57.977 40.6126 58.0244 40.6248 58.0772 40.6248ZM60.2878 39.7595C60.3744 39.7595 60.451 39.7771 60.5173 39.8123C60.585 39.8461 60.6378 39.899 60.6758 39.9707C60.715 40.0411 60.7347 40.1318 60.7347 40.2429V40.8685H60.4178V40.2916C60.4178 40.2036 60.3995 40.1386 60.363 40.0966C60.3264 40.0546 60.2749 40.0337 60.2086 40.0337C60.1625 40.0337 60.1213 40.0445 60.0847 40.0662C60.0481 40.0865 60.0197 40.1176 59.9994 40.1596C59.9791 40.2016 59.9689 40.2551 59.9689 40.3201V40.8685H59.652V40.2916C59.652 40.2036 59.6338 40.1386 59.5972 40.0966C59.5619 40.0546 59.5111 40.0337 59.4448 40.0337C59.3988 40.0337 59.3575 40.0445 59.3209 40.0662C59.2844 40.0865 59.2559 40.1176 59.2356 40.1596C59.2153 40.2016 59.2052 40.2551 59.2052 40.3201V40.8685H58.8883V39.7757H59.1909V40.0743L59.1341 39.987C59.1719 39.9124 59.2255 39.8563 59.2945 39.8184C59.3649 39.7791 59.4448 39.7595 59.5342 39.7595C59.6344 39.7595 59.7217 39.7852 59.7962 39.8366C59.8721 39.8868 59.9222 39.964 59.9466 40.0682L59.8348 40.0377C59.8714 39.9524 59.9296 39.8847 60.0095 39.8346C60.0908 39.7845 60.1835 39.7595 60.2878 39.7595ZM61.689 40.8685V40.6552L61.6687 40.6085V40.2266C61.6687 40.159 61.6477 40.1061 61.6057 40.0682C61.5651 40.0303 61.5021 40.0113 61.4168 40.0113C61.3586 40.0113 61.301 40.0208 61.2441 40.0398C61.1886 40.0574 61.1413 40.0818 61.1019 40.1129L60.9882 39.8915C61.0478 39.8495 61.1196 39.817 61.2035 39.794C61.2875 39.771 61.3728 39.7595 61.4594 39.7595C61.626 39.7595 61.7554 39.7987 61.8474 39.8773C61.9395 39.9558 61.9855 40.0784 61.9855 40.2449V40.8685H61.689ZM61.3558 40.8848C61.2705 40.8848 61.1974 40.8705 61.1365 40.8421C61.0755 40.8123 61.0288 40.7724 60.9963 40.7223C60.9638 40.6721 60.9476 40.616 60.9476 40.5537C60.9476 40.4887 60.9632 40.4318 60.9943 40.383C61.0268 40.3343 61.0776 40.2964 61.1466 40.2693C61.2157 40.2409 61.3058 40.2266 61.4168 40.2266H61.7073V40.4115H61.4513C61.3769 40.4115 61.3254 40.4237 61.2969 40.448C61.2699 40.4724 61.2563 40.5029 61.2563 40.5395C61.2563 40.5801 61.2719 40.6126 61.303 40.637C61.3355 40.6599 61.3796 40.6715 61.4351 40.6715C61.4879 40.6715 61.5353 40.6593 61.5773 40.6349C61.6193 40.6092 61.6497 40.572 61.6687 40.5232L61.7174 40.6695C61.6944 40.7399 61.6524 40.7934 61.5915 40.8299C61.5305 40.8665 61.452 40.8848 61.3558 40.8848ZM62.2723 40.8685V39.7757H62.5892V40.8685H62.2723ZM62.4308 39.6234C62.3725 39.6234 62.3252 39.6065 62.2886 39.5726C62.252 39.5387 62.2337 39.4968 62.2337 39.4466C62.2337 39.3965 62.252 39.3546 62.2886 39.3207C62.3252 39.2868 62.3725 39.2699 62.4308 39.2699C62.489 39.2699 62.5364 39.2862 62.573 39.3187C62.6095 39.3498 62.6278 39.3904 62.6278 39.4405C62.6278 39.4934 62.6095 39.5374 62.573 39.5726C62.5378 39.6065 62.4903 39.6234 62.4308 39.6234ZM63.5475 39.7595C63.6342 39.7595 63.7114 39.7771 63.779 39.8123C63.8481 39.8461 63.9023 39.899 63.9415 39.9707C63.9809 40.0411 64.0005 40.1318 64.0005 40.2429V40.8685H63.6836V40.2916C63.6836 40.2036 63.664 40.1386 63.6247 40.0966C63.5868 40.0546 63.5326 40.0337 63.4622 40.0337C63.4121 40.0337 63.3667 40.0445 63.3261 40.0662C63.2868 40.0865 63.2557 40.1183 63.2326 40.1616C63.211 40.2049 63.2001 40.2605 63.2001 40.3282V40.8685H62.8833V39.7757H63.1859V40.0784L63.129 39.987C63.1684 39.9138 63.2245 39.8576 63.2976 39.8184C63.3708 39.7791 63.454 39.7595 63.5475 39.7595ZM64.4076 40.8848C64.3534 40.8848 64.3067 40.8665 64.2674 40.8299C64.2295 40.792 64.2106 40.744 64.2106 40.6857C64.2106 40.6274 64.2295 40.5807 64.2674 40.5455C64.3067 40.509 64.3534 40.4907 64.4076 40.4907C64.4631 40.4907 64.5098 40.509 64.5477 40.5455C64.5856 40.5807 64.6046 40.6274 64.6046 40.6857C64.6046 40.744 64.5856 40.792 64.5477 40.8299C64.5098 40.8665 64.4631 40.8848 64.4076 40.8848ZM65.3356 40.8848C65.2177 40.8848 65.1128 40.861 65.0207 40.8137C64.9286 40.7649 64.8562 40.6979 64.8034 40.6126C64.7519 40.5273 64.7262 40.4304 64.7262 40.3221C64.7262 40.2124 64.7519 40.1156 64.8034 40.0316C64.8562 39.9463 64.9286 39.8799 65.0207 39.8326C65.1128 39.7838 65.2177 39.7595 65.3356 39.7595C65.4507 39.7595 65.5509 39.7838 65.6362 39.8326C65.7215 39.8799 65.7845 39.9484 65.8251 40.0377L65.5793 40.1698C65.5509 40.1183 65.5149 40.0804 65.4716 40.056C65.4296 40.0316 65.3836 40.0195 65.3335 40.0195C65.2793 40.0195 65.2306 40.0316 65.1873 40.056C65.144 40.0804 65.1094 40.1149 65.0837 40.1596C65.0593 40.2043 65.0471 40.2585 65.0471 40.3221C65.0471 40.3857 65.0593 40.4399 65.0837 40.4846C65.1094 40.5293 65.144 40.5638 65.1873 40.5882C65.2306 40.6126 65.2793 40.6248 65.3335 40.6248C65.3836 40.6248 65.4296 40.6132 65.4716 40.5902C65.5149 40.5659 65.5509 40.5273 65.5793 40.4745L65.8251 40.6085C65.7845 40.6965 65.7215 40.7649 65.6362 40.8137C65.5509 40.861 65.4507 40.8848 65.3356 40.8848ZM66.5137 40.8848C66.3972 40.8848 66.2936 40.8604 66.2029 40.8116C66.1135 40.7629 66.0424 40.6965 65.9896 40.6126C65.9381 40.5273 65.9124 40.4304 65.9124 40.3221C65.9124 40.2124 65.9381 40.1156 65.9896 40.0316C66.0424 39.9463 66.1135 39.8799 66.2029 39.8326C66.2936 39.7838 66.3972 39.7595 66.5137 39.7595C66.6287 39.7595 66.7317 39.7838 66.8224 39.8326C66.9131 39.8799 66.9842 39.9457 67.0357 40.0296C67.0871 40.1135 67.1129 40.211 67.1129 40.3221C67.1129 40.4304 67.0871 40.5273 67.0357 40.6126C66.9842 40.6965 66.9131 40.7629 66.8224 40.8116C66.7317 40.8604 66.6287 40.8848 66.5137 40.8848ZM66.5137 40.6248C66.5665 40.6248 66.6139 40.6126 66.6559 40.5882C66.6978 40.5638 66.731 40.5293 66.7554 40.4846C66.7798 40.4385 66.792 40.3844 66.792 40.3221C66.792 40.2585 66.7798 40.2043 66.7554 40.1596C66.731 40.1149 66.6978 40.0804 66.6559 40.056C66.6139 40.0316 66.5665 40.0195 66.5137 40.0195C66.4609 40.0195 66.4134 40.0316 66.3715 40.056C66.3295 40.0804 66.2956 40.1149 66.2699 40.1596C66.2456 40.2043 66.2334 40.2585 66.2334 40.3221C66.2334 40.3844 66.2456 40.4385 66.2699 40.4846C66.2956 40.5293 66.3295 40.5638 66.3715 40.5882C66.4134 40.6126 66.4609 40.6248 66.5137 40.6248ZM68.7242 39.7595C68.8109 39.7595 68.8874 39.7771 68.9538 39.8123C69.0215 39.8461 69.0743 39.899 69.1122 39.9707C69.1515 40.0411 69.1711 40.1318 69.1711 40.2429V40.8685H68.8542V40.2916C68.8542 40.2036 68.836 40.1386 68.7994 40.0966C68.7628 40.0546 68.7113 40.0337 68.645 40.0337C68.599 40.0337 68.5577 40.0445 68.5211 40.0662C68.4846 40.0865 68.4561 40.1176 68.4358 40.1596C68.4155 40.2016 68.4053 40.2551 68.4053 40.3201V40.8685H68.0885V40.2916C68.0885 40.2036 68.0702 40.1386 68.0336 40.0966C67.9984 40.0546 67.9476 40.0337 67.8813 40.0337C67.8352 40.0337 67.7939 40.0445 67.7574 40.0662C67.7208 40.0865 67.6924 40.1176 67.6721 40.1596C67.6517 40.2016 67.6416 40.2551 67.6416 40.3201V40.8685H67.3247V39.7757H67.6274V40.0743L67.5705 39.987C67.6084 39.9124 67.6619 39.8563 67.731 39.8184C67.8013 39.7791 67.8813 39.7595 67.9706 39.7595C68.0708 39.7595 68.1582 39.7852 68.2327 39.8366C68.3085 39.8868 68.3586 39.964 68.383 40.0682L68.2713 40.0377C68.3078 39.9524 68.366 39.8847 68.446 39.8346C68.5272 39.7845 68.6199 39.7595 68.7242 39.7595Z" fill="#1B7C97"/>
<path d="M32.2154 41.5593C32.3186 41.6624 32.4858 41.6623 32.5891 41.5593C32.6924 41.456 32.6928 41.2883 32.5897 41.1851L31.8524 40.4478H33.7544C33.8755 40.4478 33.9737 40.3496 33.9737 40.2284C33.9737 40.1073 33.8755 40.0091 33.7544 40.0091H31.8333L32.5897 39.2528C32.6928 39.1495 32.6924 38.9818 32.5891 38.8785C32.4858 38.7756 32.3186 38.7754 32.2154 38.8785L31.0618 40.0321C30.9589 40.1353 30.9589 40.3025 31.0618 40.4057L32.2154 41.5593Z" fill="#2398B8"/>
<path d="M37.5992 38.8878C37.4959 38.7847 37.3288 38.7848 37.2255 38.8878C37.1222 38.9911 37.1217 39.1588 37.2249 39.2621L37.9622 39.9993H36.0602C35.9391 39.9993 35.8409 40.0976 35.8408 40.2186C35.8408 40.3399 35.9391 40.438 36.0602 40.438H37.9813L37.2249 41.1944C37.1217 41.2976 37.1222 41.4653 37.2255 41.5686C37.3288 41.6716 37.496 41.6717 37.5992 41.5686L38.7527 40.415C38.8557 40.3118 38.8556 40.1446 38.7527 40.0414L37.5992 38.8878Z" fill="#2398B8"/>
<mask id="mask0_1033_392" style="mask-type:luminance" maskUnits="userSpaceOnUse" x="37" y="45" width="11" height="11">
<path d="M47.125 45.5H37.375V55.25H47.125V45.5Z" fill="white"/>
</mask>
<g mask="url(#mask0_1033_392)">
<mask id="mask1_1033_392" style="mask-type:luminance" maskUnits="userSpaceOnUse" x="37" y="45" width="11" height="11">
<path d="M47.125 45.5H37.375V55.25H47.125V45.5Z" fill="white"/>
</mask>
<g mask="url(#mask1_1033_392)">
<path d="M42.25 45.5C44.9424 45.5 47.125 47.6826 47.125 50.375C47.125 53.0674 44.9424 55.25 42.25 55.25C39.5576 55.25 37.375 53.0674 37.375 50.375C37.375 47.6826 39.5576 45.5 42.25 45.5ZM40.8898 53.125C40.9417 53.2453 40.9965 53.3594 41.0542 53.4666C41.329 53.9769 41.6189 54.2608 41.875 54.3967V53.125H40.8898ZM42.625 54.3967C42.8811 54.2608 43.171 53.9769 43.4458 53.4666C43.5035 53.3594 43.5583 53.2453 43.6102 53.125H42.625V54.3967ZM39.1757 53.125C39.5661 53.561 40.0476 53.9134 40.5905 54.1522C40.3959 53.8571 40.2246 53.5109 40.0824 53.125H39.1757ZM44.4176 53.125C44.2754 53.511 44.104 53.857 43.9095 54.1522C44.4524 53.9134 44.9339 53.561 45.3243 53.125H44.4176ZM38.1421 50.75C38.1949 51.3356 38.3701 51.8858 38.6419 52.375H39.8555C39.7337 51.8728 39.6563 51.3254 39.6327 50.75H38.1421ZM42.625 52.375H43.8701C44.0026 51.8884 44.0902 51.3398 44.1166 50.75H42.625V52.375ZM44.8673 50.75C44.8437 51.3254 44.7663 51.8728 44.6445 52.375H45.8581C46.1299 51.8858 46.3051 51.3356 46.3579 50.75H44.8673ZM40.3834 50.75C40.4098 51.3398 40.4974 51.8884 40.6299 52.375H41.875V50.75H40.3834ZM38.6419 48.375C38.3701 48.8642 38.1949 49.4144 38.1421 50H39.6327C39.6563 49.4246 39.7337 48.8772 39.8555 48.375H38.6419ZM42.625 50H44.1166C44.0902 49.4102 44.0026 48.8616 43.8701 48.375H42.625V50ZM44.6445 48.375C44.7663 48.8772 44.8437 49.4246 44.8673 50H46.3579C46.3051 49.4144 46.1299 48.8642 45.8581 48.375H44.6445ZM40.6299 48.375C40.4974 48.8616 40.4098 49.4102 40.3834 50H41.875V48.375H40.6299ZM40.5905 46.5977C40.0476 46.8366 39.5661 47.189 39.1757 47.625H40.0824C40.2247 47.239 40.3959 46.8929 40.5905 46.5977ZM42.625 47.625H43.6102C43.5583 47.5047 43.5035 47.3906 43.4458 47.2834C43.171 46.7731 42.8811 46.4891 42.625 46.3531V47.625ZM43.9095 46.5977C44.104 46.8929 44.2753 47.239 44.4176 47.625H45.3243C44.9339 47.189 44.4524 46.8366 43.9095 46.5977ZM41.875 46.3531C41.6189 46.4891 41.329 46.7731 41.0542 47.2834C40.9965 47.3906 40.9417 47.5047 40.8898 47.625H41.875V46.3531Z" fill="#369DC3"/>
</g>
</g>
<path d="M61.6278 64.5937C61.5786 64.5937 61.5294 64.5842 61.4818 64.5667C61.3802 64.527 61.2993 64.4493 61.2549 64.3493L58.8841 58.8681L55.934 61.6404C55.8166 61.7515 55.6436 61.7801 55.4944 61.7166C55.3468 61.6531 55.25 61.5055 55.25 61.3437V47.9374C55.25 47.7756 55.3452 47.6296 55.4944 47.5645C55.6419 47.501 55.8149 47.5295 55.934 47.6407L65.684 56.74C65.8014 56.8495 65.8426 57.0193 65.7903 57.1701C65.7379 57.3224 65.6014 57.4287 65.4412 57.443L61.3041 57.7985L63.7844 63.2067C63.8289 63.3035 63.8337 63.4162 63.7956 63.5178C63.7574 63.6193 63.6829 63.7002 63.5845 63.7447L61.796 64.5572C61.742 64.581 61.6865 64.5937 61.6278 64.5937Z" fill="#2C8FBA"/>
<defs>
<filter id="filter0_d_1033_392" x="37.25" y="81.125" width="28.6875" height="10.8125" filterUnits="userSpaceOnUse" color-interpolation-filters="sRGB">
<feFlood flood-opacity="0" result="BackgroundImageFix"/>
<feColorMatrix in="SourceAlpha" type="matrix" values="0 0 0 0 0 0 0 0 0 0 0 0 0 0 0 0 0 0 127 0" result="hardAlpha"/>
<feOffset/>
<feGaussianBlur stdDeviation="2.5"/>
<feComposite in2="hardAlpha" operator="out"/>
<feColorMatrix type="matrix" values="0 0 0 0 0 0 0 0 0 0 0 0 0 0 0 0 0 0 0.25 0"/>
<feBlend mode="normal" in2="BackgroundImageFix" result="effect1_dropShadow_1033_392"/>
<feBlend mode="normal" in="SourceGraphic" in2="effect1_dropShadow_1033_392" result="shape"/>
</filter>
<linearGradient id="paint0_linear_1033_392" x1="53.2187" y1="42.25" x2="79.625" y2="68.25" gradientUnits="userSpaceOnUse">
<stop stop-color="#A8E3E7"/>
<stop offset="0.953125" stop-color="#28C6D0"/>
</linearGradient>
</defs>
</svg>
