<svg width="56" height="56" viewBox="0 0 56 56" fill="none" xmlns="http://www.w3.org/2000/svg">
<g clip-path="url(#clip0_1001_97)">
<path d="M28 0C12.5371 0 0 12.5371 0 28C0 43.4629 12.5371 56 28 56C43.4629 56 56 43.4629 56 28C56 12.5371 43.4629 0 28 0ZM48.4759 16.8073C48.5762 17.5501 48.6309 18.3477 48.6309 19.2044C48.6309 21.5697 48.1888 24.2311 46.8581 27.5625L39.7305 48.166C46.6667 44.1237 51.3333 36.6042 51.3333 28C51.3333 23.944 50.2988 20.1296 48.4759 16.8073ZM28.4102 30.0417L21.4102 50.3854C23.502 51.0007 25.7122 51.3379 28 51.3379C30.7161 51.3379 33.3229 50.8685 35.7474 50.0163C35.6836 49.916 35.6289 49.8112 35.5788 49.6927L28.4102 30.0417ZM43.75 26.8242C43.75 23.9395 42.7155 21.9434 41.8268 20.3893C40.6419 18.4661 39.5345 16.8392 39.5345 14.916C39.5345 12.7695 41.1615 10.7734 43.4538 10.7734C43.5586 10.7734 43.6543 10.7871 43.7546 10.7917C39.6029 6.98633 34.0703 4.66667 28 4.66667C19.847 4.66667 12.6784 8.85026 8.50391 15.1849C9.05078 15.2031 9.56575 15.2122 10.0078 15.2122C12.446 15.2122 16.2285 14.916 16.2285 14.916C17.4863 14.8431 17.6322 16.6888 16.3789 16.8392C16.3789 16.8392 15.1165 16.985 13.7083 17.0625L22.2031 42.3372L27.3118 27.0247L23.6751 17.0625C22.4173 16.9896 21.2279 16.8392 21.2279 16.8392C19.9701 16.7663 20.1159 14.8431 21.3737 14.916C21.3737 14.916 25.2246 15.2122 27.5169 15.2122C29.9551 15.2122 33.7376 14.916 33.7376 14.916C34.9954 14.8431 35.1413 16.6888 33.888 16.8392C33.888 16.8392 32.6211 16.985 31.2174 17.0625L39.6484 42.1413L42.0547 34.5124C43.1257 31.181 43.75 28.8203 43.75 26.8242ZM4.66667 28C4.66667 37.2376 10.0352 45.2174 17.819 49L6.68555 18.5026C5.39128 21.4056 4.66667 24.6139 4.66667 28ZM28 1.68164C31.5547 1.68164 35 2.37891 38.2448 3.75065C39.8034 4.41146 41.3073 5.22721 42.7155 6.17513C44.11 7.11849 45.4225 8.19857 46.612 9.38802C47.8014 10.5775 48.8861 11.89 49.8249 13.2845C50.7773 14.6927 51.5931 16.1966 52.2494 17.7552C53.6211 21 54.3184 24.4453 54.3184 28C54.3184 31.5547 53.6211 35 52.2494 38.2448C51.5885 39.8034 50.7728 41.3073 49.8249 42.7155C48.8815 44.11 47.8014 45.4225 46.612 46.612C45.4225 47.8014 44.11 48.8861 42.7155 49.8249C41.3073 50.7773 39.8034 51.5931 38.2448 52.2494C35 53.6211 31.5547 54.3184 28 54.3184C24.4453 54.3184 21 53.6211 17.7552 52.2494C16.1966 51.5885 14.6927 50.7728 13.2845 49.8249C11.89 48.8815 10.5775 47.8014 9.38802 46.612C8.19857 45.4225 7.11393 44.11 6.17513 42.7155C5.22266 41.3073 4.4069 39.8034 3.75065 38.2448C2.37435 35 1.68164 31.5547 1.68164 28C1.68164 24.4453 2.37891 21 3.75065 17.7552C4.41146 16.1966 5.22721 14.6927 6.17513 13.2845C7.11849 11.89 8.19857 10.5775 9.38802 9.38802C10.5775 8.19857 11.89 7.11393 13.2845 6.17513C14.6927 5.22266 16.1966 4.4069 17.7552 3.75065C21 2.37435 24.4453 1.68164 28 1.68164Z" fill="#DFD0B8"/>
</g>
<defs>
<clipPath id="clip0_1001_97">
<rect width="56" height="56" fill="white"/>
</clipPath>
</defs>
</svg>
