<svg width="39" height="28" viewBox="0 0 39 28" fill="none" xmlns="http://www.w3.org/2000/svg">
<g clip-path="url(#clip0_1025_49)">
<path d="M38.1967 4.38118C37.747 2.66824 36.4298 1.31765 34.7593 0.856471C31.7074 0 19.4999 0 19.4999 0C19.4999 0 7.29239 0 4.24051 0.823529C2.60213 1.28471 1.25288 2.66824 0.803127 4.38118C0 7.51059 0 14 0 14C0 14 0 20.5224 0.803127 23.6188C1.25288 25.3318 2.57001 26.6824 4.24051 27.1435C7.32452 28 19.4999 28 19.4999 28C19.4999 28 31.7074 28 34.7593 27.1765C36.4298 26.7153 37.747 25.3647 38.1967 23.6518C38.9998 20.5224 38.9998 14.0329 38.9998 14.0329C38.9998 14.0329 39.032 7.51059 38.1967 4.38118Z" fill="#586169"/>
<path d="M25.7643 13.9999L15.6128 8.00464V19.9952L25.7643 13.9999Z" fill="#DFD0B8"/>
</g>
<defs>
<clipPath id="clip0_1025_49">
<rect width="39" height="28" fill="white"/>
</clipPath>
</defs>
</svg>
